<?xml version="1.0" encoding="utf-8"?>
<!-- Generator: Adobe Illustrator 26.4.1, SVG Export Plug-In . SVG Version: 6.00 Build 0)  -->
<svg version="1.1" id="Layer_1" xmlns="http://www.w3.org/2000/svg" xmlns:xlink="http://www.w3.org/1999/xlink" x="0px" y="0px"
	 viewBox="0 0 1920 1080" style="enable-background:new 0 0 1920 1080;" xml:space="preserve">
<style type="text/css">
	.st0{fill:#FFD553;}
	.st1{opacity:0.3;}
	.st2{fill:#6B184E;}
	.st3{fill:#2ECC71;}
	.st4{opacity:0.55;}
	.st5{fill:#FFFFFF;}
	.st6{fill:#FFCA28;}
	.st7{opacity:0.4;}
	.st8{fill:#FDE6E6;}
	.st9{fill:#ED197C;}
	.st10{filter:url(#Adobe_OpacityMaskFilter);}
	.st11{filter:url(#Adobe_OpacityMaskFilter_00000015337458618465816300000016345681675188561796_);}
	.st12{mask:url(#SVGID_1_);fill:url(#SVGID_00000169553489966284326320000014713303606071888030_);}
	.st13{opacity:0.3;fill:url(#SVGID_00000144296501025893895480000017428925623548082879_);}
	.st14{filter:url(#Adobe_OpacityMaskFilter_00000013900261158075879880000015306337794122220730_);}
	.st15{filter:url(#Adobe_OpacityMaskFilter_00000121999692445717881930000015847474534006293165_);}
	
		.st16{mask:url(#SVGID_00000058579177245408967310000014439218130513987246_);fill:url(#SVGID_00000125595918937436488160000001156137904463726512_);}
	.st17{opacity:0.3;fill:url(#SVGID_00000083805426793958674930000008667187706262967183_);}
	.st18{filter:url(#Adobe_OpacityMaskFilter_00000134234903682324528100000002092193856087442831_);}
	.st19{filter:url(#Adobe_OpacityMaskFilter_00000134218048915541664120000014917506743827078804_);}
	
		.st20{mask:url(#SVGID_00000045576941786237998890000005413283457924687292_);fill:url(#SVGID_00000173147688398760330530000013811001610639354299_);}
	.st21{opacity:0.3;fill:url(#SVGID_00000060734440899208886660000013875806791481287315_);}
	.st22{fill:#FFC107;}
	.st23{fill:#FFDCA8;}
	.st24{fill:#FFA726;}
	.st25{filter:url(#Adobe_OpacityMaskFilter_00000175303020615403872670000002882283575842292635_);}
	.st26{filter:url(#Adobe_OpacityMaskFilter_00000007386422630939825990000008450941017373654174_);}
	
		.st27{mask:url(#SVGID_00000143600697289733214880000014016227071802643603_);fill:url(#SVGID_00000083810120900528743780000006656079400494501002_);}
	.st28{opacity:0.3;fill:url(#SVGID_00000006677086332978070330000002337390371526419120_);}
	.st29{filter:url(#Adobe_OpacityMaskFilter_00000026139323844358281130000014780338937127692966_);}
	.st30{filter:url(#Adobe_OpacityMaskFilter_00000027572207552032653200000000634162253810233216_);}
	
		.st31{mask:url(#SVGID_00000038413805582786830030000009107743701545482402_);fill:url(#SVGID_00000111171453853860775670000000672906271937174673_);}
	.st32{opacity:0.3;fill:url(#SVGID_00000150820304834504540360000005743765634253675663_);}
	.st33{filter:url(#Adobe_OpacityMaskFilter_00000163763243486962962270000007931083705665104296_);}
	.st34{filter:url(#Adobe_OpacityMaskFilter_00000065064978897959750010000012711264608989011329_);}
	
		.st35{mask:url(#SVGID_00000035519310724359780490000001050278399407569031_);fill:url(#SVGID_00000042700953027892685690000003214205197567342981_);}
	.st36{opacity:0.3;fill:url(#SVGID_00000097468529363418741230000006903843597137616029_);}
</style>
<g>
	<rect x="2" class="st0" width="1920" height="1079"/>
</g>
<g class="st1">
	<ellipse class="st2" cx="960" cy="898.3" rx="372.5" ry="39.3"/>
</g>
<g>
	<g>
		<g>
			<path class="st3" d="M939.1,412.8c-16.9-18.4-29.8-39.5-39-61.2c-13.1-30.8-18.8-62.9-18.4-90.4c0.2-16.8,2.7-32,7.2-44.1
				c1.6-4.2,7.1-5.3,10.2-2c10.2,10.7,19.6,25.8,27.5,43.4c0,0,0,0,0,0c8.7,19.6,15.5,42.3,19,65.4C950.2,355,949,386.7,939.1,412.8
				z"/>
		</g>
		<g class="st1">
			<path class="st3" d="M945.5,324c-17.2,11.9-40.6,27.6-45.1,27.6c-0.1,0-0.2,0-0.3,0c-13.1-30.8-14.3-44.8-14-72.3
				c6.9,25.8,34.4-3.5,32.3-36.3C927.2,262.7,942,300.9,945.5,324z"/>
		</g>
	</g>
	<g class="st4">
		<g>
			<path class="st5" d="M939.8,410.9c-0.2,0.7-0.5,1.3-0.7,1.9c-59.3-64.6-68.5-161.3-46.6-203.9c2.7,2.2,5.3,4.8,7.9,7.7
				c-1.9,3.8-3.5,8-4.9,12.5c4.6,4.4,3.7,10.1-3,12.5C883.9,287.6,896.6,357.9,939.8,410.9z"/>
		</g>
	</g>
	<g>
		<g>
			<path class="st2" d="M939.1,417.1c-1.2,0-2.4-0.5-3.2-1.4c-26.3-28.7-45.5-66.9-53.9-107.6c-7.4-35.7-5.9-71.4,3.9-95.4
				c1.1-2.7,3.4-4.6,6.3-5.2c2.8-0.6,5.8,0.3,7.8,2.3c39.9,39.3,68,139.2,43.1,204.4c-0.5,1.4-1.8,2.4-3.2,2.7
				C939.6,417.1,939.3,417.1,939.1,417.1z M893.9,216.1c-16.3,39.7-9.7,125.7,43.5,188.2C956.2,343.5,930.3,251.9,893.9,216.1z"/>
		</g>
	</g>
	<g>
		<g>
			<path class="st3" d="M981.5,412.8c-23.7-62.2,2.5-156.3,38.4-196c3.8-4.2,10.7-2.8,12.5,2.5C1048.3,265.8,1036.4,353,981.5,412.8
				L981.5,412.8z"/>
		</g>
	</g>
	<g class="st4">
		<g>
			<path class="st5" d="M1022.2,229.5c2.2,7.3-0.4,10-6.7,9.3C987.7,281,969.8,354.3,985,408.9c-1.1,1.3-2.3,2.6-3.5,3.9
				c-25.5-66.8,6.7-170.4,46.6-203.9c1.5,3,2.9,6.2,4.1,9.6C1028.7,221.7,1025.4,225.4,1022.2,229.5z"/>
		</g>
	</g>
	<g>
		<g>
			<path class="st2" d="M981.5,417.1c-0.3,0-0.5,0-0.8-0.1c-1.5-0.3-2.7-1.3-3.2-2.7c-11.5-30-12.5-69.4-2.9-110.9
				c8.7-37.7,25.2-72,44.2-91.7c2.4-2.5,5.9-3.6,9.4-2.9c3.4,0.7,6.2,3.1,7.4,6.3c18.7,49.5,4.5,140.2-50.9,200.6
				C983.9,416.6,982.7,417.1,981.5,417.1z M1026.1,217.3c-0.3,0-0.7,0.1-1.1,0.5c-35.4,36.8-60.6,126.1-41.8,186.6
				c28.4-33.4,41-70.4,46.5-96.2c7.2-33.5,6.3-67.1-2.3-89.9c-0.2-0.6-0.8-0.8-1-0.9C1026.3,217.3,1026.2,217.3,1026.1,217.3z"/>
		</g>
	</g>
	<g>
		<path class="st3" d="M1067.6,241.1c4.8-3.8,11.7,0.4,10.6,6.4c-3.2,17.5-10,38.8-20.1,60.9c-18.7,40.6-48.6,83.6-88.4,109.2
			c1.3-35.9,15.9-72,35-102.9C1024.2,282.8,1048.4,256.3,1067.6,241.1z"/>
	</g>
	<g class="st1">
		<path class="st2" d="M1058.1,308.3c-18.7,40.6-48.6,83.6-88.4,109.2c1.3-35.9,15.9-72,35-102.9
			C1024.5,331.1,1042.1,326.8,1058.1,308.3z"/>
	</g>
	<g class="st4">
		<path class="st5" d="M1078.8,244.2c-5.2,3.8-10.7,8.5-16.6,14c2.1,7.8-0.8,10.5-8.4,8.3c-32.8,33.9-69.5,89.1-76,145.4
			c-2.7,1.9-5.4,3.8-8.1,5.6c2.8-74.6,62.8-149.8,100.6-178.5c3.8-2.9,9.3,0.3,8.5,5.1L1078.8,244.2z"/>
	</g>
	<g>
		<path class="st2" d="M969.7,421.8c-0.7,0-1.5-0.2-2.2-0.6c-1.4-0.8-2.2-2.3-2.2-3.9c2.7-73.8,61.4-150.7,102.2-181.7
			c3.2-2.4,7.5-2.7,10.9-0.6c3.5,2.1,5.3,6,4.6,10c-7.4,45.3-44,133.2-111.1,176.2C971.3,421.6,970.5,421.8,969.7,421.8z
			 M1073.4,242.3c-0.2,0-0.4,0.1-0.6,0.2c-37.8,28.8-91.5,98.2-98.2,166.4c60-43,93-123.2,99.9-165.3c0.1-0.6-0.2-0.9-0.5-1.1
			C1073.8,242.3,1073.6,242.3,1073.4,242.3z"/>
	</g>
	<g>
		<path class="st3" d="M951.9,417.5c-63.5-40.8-102-126-109.4-175c-0.6-4.2,4.1-7,7.5-4.5C887.6,265.9,949.1,342.1,951.9,417.5
			L951.9,417.5z"/>
	</g>
	<g class="st4">
		<path class="st5" d="M950.7,417.5c-68.2-43.8-107.6-138.9-110.5-185.3c3.5,2.1,7.3,4.7,11.4,7.9c0.8,6,2.1,12.6,3.9,19.7
			c9.3,2.4,10.9,8.1,5.1,17.3c14.7,44.4,45.4,99.1,89.7,132.7C950.4,412.3,950.6,414.9,950.7,417.5z"/>
	</g>
	<g>
		<path class="st2" d="M951.9,421.8c-0.8,0-1.6-0.2-2.3-0.7C883.9,379,844.8,290.7,838,241.5c-0.5-3.4,1.1-6.6,4-8.3
			c2.9-1.7,6.5-1.6,9.3,0.4c40.7,29.4,102.2,108.1,105,183.8c0.1,1.6-0.8,3.1-2.2,3.9C953.4,421.7,952.6,421.8,951.9,421.8z
			 M846.7,241c6.6,45.9,41.7,125.8,100.3,167.9C940.1,339.2,884.4,268.5,846.7,241z"/>
	</g>
	<g>
		<path class="st3" d="M958.9,402.2c-23.6-29.4-32.7-69.7-33.1-109.6c-0.6-51.8,13.5-102.8,29.7-128.4c2.5-4,8.5-3.9,10.9,0.2
			c13.7,23.4,24.8,63.8,26.6,107C995,317.7,986.3,367.1,958.9,402.2z"/>
	</g>
	<g class="st1">
		<path class="st2" d="M958.9,402.2c-23.6-29.4-32.7-69.7-33.1-109.6l0.4-1.5c0,51.2,66.8,21.5,66.8-19.7c0,0,0,0,0,0
			C995,317.7,986.3,367.1,958.9,402.2z"/>
	</g>
	<g class="st4">
		<path class="st5" d="M960.3,400.5c-0.4,0.6-0.9,1.2-1.3,1.8c-57.8-72.1-28.7-209.2,2.2-245.8c2.5,3.4,5,7.3,7.4,11.8
			c-5.7,7.6-11.3,18.5-16.2,31.7c7.2,12,6.9,21.2-7.8,25.1C930.9,278.1,928.9,350.8,960.3,400.5z"/>
	</g>
	<g>
		<path class="st2" d="M958.9,406.6c-1.3,0-2.6-0.6-3.4-1.6c-55.4-69.1-33.4-197.3-3-244.1c1.9-2.9,5.1-4.6,8.6-4.6
			c3.4,0.1,6.6,1.9,8.3,4.8c15.7,26.1,26.7,70.8,28.1,113.8c1.6,52.7-10.9,98.9-35.1,130C961.5,405.9,960.3,406.6,958.9,406.6
			C958.9,406.6,958.9,406.6,958.9,406.6z M960.9,164.9c-0.3,0-0.8,0.1-1.1,0.6c-12.6,19.4-26.6,60.5-29.2,108.5
			c-2.7,49.2,7.3,91.9,28.3,121c49.5-69.7,28.6-187.2,3.1-229.5C961.7,165.1,961.3,164.9,960.9,164.9
			C960.9,164.9,960.9,164.9,960.9,164.9z"/>
	</g>
	<g>
		<path class="st6" d="M1006.6,887.4c-32.7,3.2-65.3,2.9-97.7-0.7c-78.5-8.6-136.8-76.9-133.9-155.8c-3-72.9,0.4-149.8,8.5-229.7
			c28.4-205.7,321.2-214.5,350.4,0c8.5,78.1,11.6,154.9,8.6,230.1C1145.6,811.1,1086.1,879.7,1006.6,887.4z"/>
	</g>
	<g class="st1">
		<path class="st5" d="M847.3,503.4c12.3-30.4,34.3-50.1,49.1-44.1c14.9,6,8.3,32-3.9,62.4c-12.3,30.4-25.6,53.6-40.5,47.6
			C837.2,563.3,835.1,533.8,847.3,503.4z"/>
	</g>
	<g class="st1">
		<path class="st2" d="M1142.7,731.3c3,79.8-56.6,148.4-136,156.1c-32.7,3.2-65.3,2.9-97.7-0.7c-43.5-4.8-80.9-27.9-104.9-61
			c20.5,14.9,45,24.9,71.8,27.8c32.4,3.5,65,3.9,97.7,0.7c79.4-7.7,139-76.3,136-156.1c3-75.2-0.1-152-8.6-230.1
			c-5-36.6-17.7-66.8-35.4-90.5c34.8,26,60.8,67.1,68.6,123.7C1142.6,579.4,1145.7,656.1,1142.7,731.3z"/>
	</g>
	<g class="st4">
		<path class="st5" d="M863.6,394.9c12.4,24.4-10,55.9-41.3,50.2c-10.5,19.3-18,41.6-21.5,66.9c-8.1,79.9-11.5,156.8-8.5,229.7
			c-1.9,52.1,22.8,99.6,62.5,128.3c-49.5-26.5-81.9-79.8-79.7-139c-3-72.9,0.4-149.8,8.5-229.7c20.7-149.9,181.9-195.3,279.1-125.7
			C1000.5,341.6,919.4,348.8,863.6,394.9z"/>
	</g>
	<g>
		<path class="st2" d="M961.4,893.9c-17.6,0-35.3-1-52.8-2.9c-39-4.3-74.6-23.1-100.3-53c-25.6-29.8-38.9-67.8-37.4-107.1
			c-2.9-70.1-0.1-145.3,8.6-230.1c0-0.1,0-0.1,0-0.2c6.9-49.7,29.4-91.4,65.3-120.6c32.3-26.3,73.7-40.7,116.5-40.7
			c0.1,0,0.1,0,0.2,0c42.2,0,82.5,14.3,113.6,40.1c34.7,28.8,56.7,70.8,63.5,121.3c8.6,79.5,11.5,157.1,8.6,230.7
			c3,82.1-58.5,152.5-140,160.4C991.9,893.2,976.7,893.9,961.4,893.9z M1006.2,883.1l0.4,4.3L1006.2,883.1
			c77-7.5,135-74,132.1-151.6c0-0.1,0-0.2,0-0.3c2.9-73.2,0-150.4-8.5-229.5c-14.4-106.1-95-153.6-168.5-153.7c0,0-0.1,0-0.2,0
			C888,348,802.6,396,788,501.7c-8.6,84.4-11.4,159.3-8.5,229c0,0.1,0,0.2,0,0.3c-2.8,76.6,54.3,143,130,151.3
			C941.8,885.9,974.3,886.1,1006.2,883.1z"/>
	</g>
	<g class="st7">
		<g>
			<path class="st2" d="M842.1,643.2c12.7,11.5,26.1,21.9,40.1,31.5l5.3,3.5c1.8,1.2,3.5,2.4,5.3,3.5c3.6,2.2,7.2,4.5,10.8,6.6
				l11,6.4l11.2,6l11.4,5.7c3.8,1.8,7.7,3.5,11.5,5.3c3.9,1.7,7.8,3.3,11.7,5c1.9,0.9,4,1.5,5.9,2.3l5.9,2.3
				c15.9,5.8,32.3,10.5,49.1,13.8c0.4,0.1,0.7,0.5,0.6,0.8c-0.1,0.4-0.4,0.6-0.7,0.6c-17.3-0.4-34.5-3.7-51.1-8.6
				c-4.1-1.3-8.3-2.5-12.4-4c-4.1-1.5-8.1-3-12.2-4.6c-4-1.7-8-3.4-11.9-5.2l-11.7-5.7l-11.4-6.3c-3.7-2.2-7.5-4.4-11.2-6.7
				c-3.6-2.4-7.2-4.8-10.8-7.2c-3.6-2.5-7-5.1-10.5-7.7c-13.7-10.6-26.4-22.6-37-36.3c-0.2-0.3-0.2-0.8,0.1-1
				C841.4,642.9,841.8,642.9,842.1,643.2z"/>
		</g>
		<g>
			<path class="st2" d="M996.7,663.7c-5.4,8.9-11.7,17.3-18.2,25.4c-6.6,8.1-13.7,15.8-21.3,23c-7.6,7.2-15.7,14-24.4,19.8
				c-8.7,5.8-18,11-28,14.4c-0.4,0.1-0.8-0.1-0.9-0.5c-0.1-0.3,0-0.6,0.2-0.8c8.3-6.4,16.3-12.6,24.2-19.2
				c7.9-6.5,15.5-13.2,23.1-20.1c7.5-6.9,14.9-14.1,22.2-21.3c7.4-7.2,14.6-14.6,22.1-21.8c0.3-0.3,0.8-0.3,1,0
				C996.9,663.1,996.9,663.5,996.7,663.7z"/>
		</g>
		<g>
			<path class="st2" d="M1087.6,521.2c-9.4-2.6-18.5-6.1-27.4-10.2c-8.9-4.1-17.4-9-25.5-14.5c-8.1-5.5-15.8-11.8-22.7-18.8
				c-6.9-7-13.1-14.6-18.2-23c-0.2-0.3-0.1-0.8,0.3-1c0.3-0.2,0.6-0.1,0.8,0.1c7.6,6.1,14.8,12.4,22.2,18.4
				c7.4,6,14.8,11.8,22.6,17.3c7.7,5.5,15.7,10.6,23.8,15.6c8.1,5,16.5,9.8,24.8,14.8c0.3,0.2,0.5,0.7,0.2,1
				C1088.2,521.1,1087.9,521.2,1087.6,521.2z"/>
		</g>
		<g>
			<path class="st2" d="M921.3,515.4c-6.7-1.3-13.2-3.9-19.3-7c-6.1-3.1-11.9-6.8-17.3-11c-5.4-4.1-10.5-8.8-15-14
				c-2.2-2.6-4.3-5.4-6.1-8.4l-1.3-2.3c-0.4-0.8-0.8-1.6-1.1-2.4c-0.8-1.6-1.3-3.3-1.8-5c-0.1-0.4,0.1-0.8,0.5-0.9
				c0.3-0.1,0.6,0,0.7,0.2l0,0c4.6,4.9,9.4,9.1,14.4,13.4c4.9,4.2,9.9,8.4,15,12.5c5.1,4.1,10.2,8.1,15.5,12
				c5.3,3.9,10.6,7.7,16.3,11.4c0.3,0.2,0.4,0.7,0.2,1C921.9,515.3,921.6,515.4,921.3,515.4z"/>
		</g>
		<g>
			<path class="st2" d="M1070.3,444.7c-3.9,7.5-8.6,14.7-13.7,21.4l-3.9,5.1c-1.3,1.7-2.7,3.3-4,4.9c-2.7,3.3-5.4,6.5-8.3,9.6
				c-11.3,12.6-23.4,24.4-35.9,35.7c-12.5,11.3-25.5,22.1-38.9,32.3c-3.4,2.5-6.7,5.1-10.2,7.5c-3.5,2.4-6.8,4.9-10.5,7.2l-5.3,3.4
				c-1.8,1.2-3.6,2.2-5.5,3.3c-3.6,2.2-7.5,4.1-11.3,5.9c-0.4,0.2-0.8,0-1-0.3c-0.2-0.3-0.1-0.7,0.2-0.9l0,0
				c3.4-2.4,6.9-4.7,10.2-7.3c1.7-1.3,3.3-2.5,5-3.8l4.9-3.9c6.5-5.3,12.9-10.7,19.2-16.1c12.6-10.9,25-22.2,37.3-33.5l9.2-8.6
				l9.1-8.6c6-5.8,12-11.6,17.9-17.5c11.8-11.8,23.6-23.6,34.2-36.5l0,0c0.3-0.3,0.7-0.4,1-0.1
				C1070.4,444,1070.5,444.4,1070.3,444.7z"/>
		</g>
		<g>
			<path class="st2" d="M905.4,466.7c-2,4.2-4.5,8.1-7.2,11.8c-2.8,3.7-5.8,7.1-9,10.4c-3.2,3.3-6.6,6.3-10.3,9.1
				c-3.7,2.8-7.5,5.3-11.8,7.2c-0.4,0.2-0.8,0-1-0.4c-0.1-0.2-0.1-0.5,0.1-0.7c2.6-3.9,5.6-7.3,8.6-10.7c3-3.3,6.2-6.5,9.3-9.6
				c3.2-3.1,6.4-6.2,9.7-9.2c3.3-3,6.7-6,10.4-8.8c0.3-0.2,0.8-0.2,1,0.1C905.5,466.2,905.5,466.5,905.4,466.7z"/>
		</g>
		<g>
			<path class="st2" d="M1100.2,669.1c-6.7-1.3-13.2-3.9-19.3-7c-6.1-3.1-11.9-6.8-17.3-11c-5.4-4.1-10.5-8.8-15-14
				c-2.2-2.6-4.3-5.4-6.1-8.4l-1.3-2.3c-0.4-0.8-0.8-1.6-1.1-2.4c-0.8-1.6-1.3-3.3-1.8-5c-0.1-0.4,0.1-0.8,0.5-0.9
				c0.3-0.1,0.6,0,0.7,0.2l0,0c4.6,4.9,9.4,9.1,14.4,13.4c4.9,4.2,9.9,8.4,15,12.5c5.1,4.1,10.2,8.1,15.5,12
				c5.3,3.9,10.6,7.7,16.3,11.4c0.3,0.2,0.4,0.7,0.2,1C1100.7,669.1,1100.4,669.2,1100.2,669.1z"/>
		</g>
		<g>
			<path class="st2" d="M1084.3,620.5c-2,4.2-4.5,8.1-7.2,11.8c-2.8,3.7-5.8,7.1-9,10.4c-3.2,3.3-6.6,6.3-10.3,9.1
				c-3.7,2.8-7.5,5.3-11.8,7.2c-0.4,0.2-0.8,0-1-0.4c-0.1-0.2-0.1-0.5,0.1-0.7c2.6-3.9,5.6-7.3,8.6-10.7c3-3.3,6.2-6.5,9.3-9.6
				c3.2-3.1,6.4-6.2,9.7-9.2c3.3-3,6.7-6,10.4-8.8c0.3-0.2,0.8-0.2,1,0.1C1084.3,619.9,1084.4,620.2,1084.3,620.5z"/>
		</g>
		<g>
			<circle class="st2" cx="968.4" cy="409.9" r="7.6"/>
		</g>
		<g>
			<circle class="st2" cx="826.4" cy="694.8" r="7.6"/>
		</g>
		<g>
			<circle class="st2" cx="841.5" cy="520.5" r="7.6"/>
		</g>
		<g>
			<circle class="st2" cx="1050.9" cy="539.2" r="4.8"/>
		</g>
		<g>
			
				<ellipse transform="matrix(0.1602 -0.9871 0.9871 0.1602 155.0578 1339.2511)" class="st2" cx="864.6" cy="578.5" rx="3.5" ry="3.5"/>
		</g>
		<g>
			<circle class="st2" cx="1054" cy="710.4" r="3.5"/>
		</g>
		<g>
			<circle class="st2" cx="955.8" cy="467.4" r="3.5"/>
		</g>
		<g>
			<circle class="st2" cx="888.6" cy="415" r="3.5"/>
		</g>
		<g>
			<circle class="st2" cx="1009.3" cy="589.8" r="3.5"/>
		</g>
		<g>
			<circle class="st2" cx="1080.2" cy="583.4" r="3.2"/>
		</g>
		<g>
			<ellipse transform="matrix(0.1602 -0.9871 0.9871 0.1602 84.96 1331.8442)" class="st2" cx="825.2" cy="616" rx="3.2" ry="3.2"/>
		</g>
		<g>
			<circle class="st2" cx="949" cy="799.1" r="3.5"/>
		</g>
		<g>
			<circle class="st2" cx="1043.3" cy="428.6" r="3.5"/>
		</g>
		<g>
			<circle class="st2" cx="949" cy="612" r="7.6"/>
		</g>
	</g>
	<g class="st1">
		<path class="st5" d="M928.8,438.6c-7.3,7.5-15.4,11.7-22.9,4.4c-7.5-7.3-7.6-19.3-0.3-26.8c7.3-7.5,19.3-7.6,26.8-0.3
			S936.2,431.1,928.8,438.6z"/>
	</g>
	<g class="st1">
		<path class="st2" d="M872.7,329.1c23.9,18.2,32.4,0.9,36.9-25.8l22.1,40.3l-41.2,13.6L872.7,329.1z"/>
	</g>
	<g class="st1">
		<path class="st2" d="M993.8,264.3c19.6,9.5,34.3,0.1,45.1-23.4v19.2l-47.2,73.7L993.8,264.3z"/>
	</g>
</g>
<g>
	<g>
		<path class="st3" d="M1317.3,851.4c-2,2.6-4.6,4.9-7.7,6.6c-10,5.7-20.3,10.7-30.9,14.9c-6.9,2.8-13.9,5.2-21,7.4
			c-3.9,1.2-7.8,2.3-11.8,3.3c-7,1.8-14,3.4-21,4.6c-49.7,9.1-101.2,5.3-149.2-11.2c-21.9-7.5-42.5-17.4-61.6-30.4
			c-11.5-7.8-15-23.3-7.7-35.2l7.5-12.2l9.5-15.4l2.8-4.6l10.3-16.7l13-21.2l9.3-15.2l20.6-33.6l30.6-49.9l13-21.2l32.5-53
			c8.1-13.1,27.4-12.4,34.4,1.3l75,146.4l23.3,45.5l14.5,28.2l2.5,4.8l8.2,16.1l6.5,12.8C1324.7,832.8,1323.4,843.7,1317.3,851.4z"
			/>
	</g>
	<g>
		<path class="st8" d="M1313.4,810.8c-20.6,12.1-42.6,20.7-65.7,26.8c-56.1,14.6-115.5,12.3-170.3-6.5
			c-22.6-7.8-43.9-18.1-63.5-31.7l9.5-15.4l2.8-4.6l129.3-210.8c8.1-13.1,27.4-12.4,34.4,1.3l112.8,220.1l2.5,4.8L1313.4,810.8z"/>
	</g>
	<g>
		<path class="st8" d="M1313.4,810.8c-20.6,12.1-42.6,20.7-65.7,26.8c-56.1,14.6-115.5,12.3-170.3-6.5
			c-22.6-7.8-43.9-18.1-63.5-31.7l9.5-15.4l2.8-4.6l129.3-210.8c8.1-13.1,27.4-12.4,34.4,1.3l112.8,220.1l2.5,4.8L1313.4,810.8z"/>
	</g>
	<g>
		<path class="st9" d="M1302.7,789.9c-17.2,8.8-35.2,15.5-54,20.3c-56.1,14.6-115.5,12.3-170.3-6.5c-18.3-6.3-35.8-14.3-52.3-24.4
			l129.3-210.8c8.1-13.1,27.4-12.4,34.4,1.3L1302.7,789.9z"/>
	</g>
	<g class="st1">
		<path class="st2" d="M1306,858.1c-20,11.5-41.4,19.8-63.7,25.6c-56.1,14.6-115.5,12.3-170.3-6.5c-11.1-3.8-21.9-8.3-32.3-13.4
			c2.9,1.1,5.9,2.2,8.9,3.2c54.8,18.9,114.2,21.1,170.2,6.5c22.4-5.8,43.7-14.1,63.7-25.6c12.1-6.9,16.7-22.1,10.3-34.5l-6.5-12.8
			l-8.3-16.1l-2.4-4.8L1163,559.9c8.6-2.5,18.6,0.8,23.3,9.9l112.8,220.1l2.5,4.8l8.2,16.1l6.5,12.8
			C1322.7,836,1318.1,851.1,1306,858.1z"/>
	</g>
	<g class="st4">
		<path class="st5" d="M1020.3,815c-4.7,11.3-0.9,24.6,9.5,31.7c19.1,13,39.7,22.9,61.6,30.4c28.1,9.7,57.3,15,86.7,15.9
			c-35.6,1.1-71.4-4.2-105.3-15.9c-21.9-7.5-42.5-17.4-61.6-30.4c-11.5-7.8-15-23.3-7.7-35.2l3.2-5.2l4.3-7.1l9.5-15.4l2.8-4.6
			L1151.6,570l1-1.6c5.8-9.5,17.5-11.7,26.1-7.1c-2.9,1.6-5.5,3.9-7.5,7.1l-129.3,210.8l-2.8,4.6l-2,3.3c12.3,6.5,25.2,12,38.4,16.6
			c54.8,18.9,114.2,21.1,170.3,6.5c16.3-4.2,32.1-9.8,47.2-17l1.6,3.1l2.4,4.8l8.3,16.1c-20.6,12.1-42.6,20.8-65.7,26.8
			c-37.8,9.8-75.1,12.3-113.5,6.9c-7.7,10-26.5,5.6-27-4.9c-10.1-2.3-20-5.2-29.8-8.5C1052.2,831.5,1035.8,824.1,1020.3,815z"/>
	</g>
	<defs>
		<filter id="Adobe_OpacityMaskFilter" filterUnits="userSpaceOnUse" x="1036.5" y="741.3" width="221.2" height="147">
			<feFlood  style="flood-color:white;flood-opacity:1" result="back"/>
			<feBlend  in="SourceGraphic" in2="back" mode="normal"/>
		</filter>
	</defs>
	<mask maskUnits="userSpaceOnUse" x="1036.5" y="741.3" width="221.2" height="147" id="SVGID_1_">
		<g class="st10">
			<defs>
				
					<filter id="Adobe_OpacityMaskFilter_00000025418667709538736740000013720859373343987361_" filterUnits="userSpaceOnUse" x="1036.5" y="741.3" width="221.2" height="147">
					<feFlood  style="flood-color:white;flood-opacity:1" result="back"/>
					<feBlend  in="SourceGraphic" in2="back" mode="normal"/>
				</filter>
			</defs>
			<mask maskUnits="userSpaceOnUse" x="1036.5" y="741.3" width="221.2" height="147" id="SVGID_1_">
				<g style="filter:url(#Adobe_OpacityMaskFilter_00000025418667709538736740000013720859373343987361_);">
				</g>
			</mask>
			
				<linearGradient id="SVGID_00000060032558576162387100000014863104119982883984_" gradientUnits="userSpaceOnUse" x1="944.4749" y1="653.8776" x2="1123.0841" y2="801.5925">
				<stop  offset="0" style="stop-color:#FFFFFF"/>
				<stop  offset="1" style="stop-color:#000000"/>
			</linearGradient>
			<path style="mask:url(#SVGID_1_);fill:url(#SVGID_00000060032558576162387100000014863104119982883984_);" d="M1257.7,880.3
				c-3.9,1.2-7.8,2.3-11.8,3.3c-7,1.8-14,3.4-21,4.6l-188.4-125.8l13-21.2L1257.7,880.3z"/>
		</g>
	</mask>
	
		<linearGradient id="SVGID_00000104678164322206153410000018234089566804592786_" gradientUnits="userSpaceOnUse" x1="944.4749" y1="653.8776" x2="1123.0841" y2="801.5925">
		<stop  offset="0" style="stop-color:#FFFFFF"/>
		<stop  offset="1" style="stop-color:#FFFFFF"/>
	</linearGradient>
	<path style="opacity:0.3;fill:url(#SVGID_00000104678164322206153410000018234089566804592786_);" d="M1257.7,880.3
		c-3.9,1.2-7.8,2.3-11.8,3.3c-7,1.8-14,3.4-21,4.6l-188.4-125.8l13-21.2L1257.7,880.3z"/>
	<defs>
		
			<filter id="Adobe_OpacityMaskFilter_00000008843160047281281740000015605039320445049732_" filterUnits="userSpaceOnUse" x="1110" y="621.5" width="178.3" height="140.2">
			<feFlood  style="flood-color:white;flood-opacity:1" result="back"/>
			<feBlend  in="SourceGraphic" in2="back" mode="normal"/>
		</filter>
	</defs>
	
		<mask maskUnits="userSpaceOnUse" x="1110" y="621.5" width="178.3" height="140.2" id="SVGID_00000073002889247148374950000001534986913097755061_">
		<g style="filter:url(#Adobe_OpacityMaskFilter_00000008843160047281281740000015605039320445049732_);">
			<defs>
				
					<filter id="Adobe_OpacityMaskFilter_00000069384385737325194160000011743951062176874429_" filterUnits="userSpaceOnUse" x="1110" y="621.5" width="178.3" height="140.2">
					<feFlood  style="flood-color:white;flood-opacity:1" result="back"/>
					<feBlend  in="SourceGraphic" in2="back" mode="normal"/>
				</filter>
			</defs>
			
				<mask maskUnits="userSpaceOnUse" x="1110" y="621.5" width="178.3" height="140.2" id="SVGID_00000073002889247148374950000001534986913097755061_">
				<g style="filter:url(#Adobe_OpacityMaskFilter_00000069384385737325194160000011743951062176874429_);">
				</g>
			</mask>
			
				<linearGradient id="SVGID_00000059296624416199577910000002822644862762913437_" gradientUnits="userSpaceOnUse" x1="970.3759" y1="519.5958" x2="1233.9458" y2="713.653">
				<stop  offset="0" style="stop-color:#FFFFFF"/>
				<stop  offset="1" style="stop-color:#000000"/>
			</linearGradient>
			
				<polygon style="mask:url(#SVGID_00000073002889247148374950000001534986913097755061_);fill:url(#SVGID_00000059296624416199577910000002822644862762913437_);" points="
				1288.3,761.7 1110,642.7 1123,621.5 1264.9,716.2 			"/>
		</g>
	</mask>
	
		<linearGradient id="SVGID_00000123432357854762135140000006689451176560481411_" gradientUnits="userSpaceOnUse" x1="970.3759" y1="519.5958" x2="1233.9458" y2="713.653">
		<stop  offset="0" style="stop-color:#FFFFFF"/>
		<stop  offset="1" style="stop-color:#FFFFFF"/>
	</linearGradient>
	<polygon style="opacity:0.3;fill:url(#SVGID_00000123432357854762135140000006689451176560481411_);" points="1288.3,761.7 
		1110,642.7 1123,621.5 1264.9,716.2 	"/>
	<defs>
		
			<filter id="Adobe_OpacityMaskFilter_00000094581088155045370340000011874528386375807625_" filterUnits="userSpaceOnUse" x="1058.8" y="692.6" width="258.5" height="180.4">
			<feFlood  style="flood-color:white;flood-opacity:1" result="back"/>
			<feBlend  in="SourceGraphic" in2="back" mode="normal"/>
		</filter>
	</defs>
	
		<mask maskUnits="userSpaceOnUse" x="1058.8" y="692.6" width="258.5" height="180.4" id="SVGID_00000181805600675797210660000016831934313146228614_">
		<g style="filter:url(#Adobe_OpacityMaskFilter_00000094581088155045370340000011874528386375807625_);">
			<defs>
				
					<filter id="Adobe_OpacityMaskFilter_00000001632525144891965630000009953591677766731705_" filterUnits="userSpaceOnUse" x="1058.8" y="692.6" width="258.5" height="180.4">
					<feFlood  style="flood-color:white;flood-opacity:1" result="back"/>
					<feBlend  in="SourceGraphic" in2="back" mode="normal"/>
				</filter>
			</defs>
			
				<mask maskUnits="userSpaceOnUse" x="1058.8" y="692.6" width="258.5" height="180.4" id="SVGID_00000181805600675797210660000016831934313146228614_">
				<g style="filter:url(#Adobe_OpacityMaskFilter_00000001632525144891965630000009953591677766731705_);">
				</g>
			</mask>
			
				<linearGradient id="SVGID_00000008122746260267358920000012432525742812803260_" gradientUnits="userSpaceOnUse" x1="923.4338" y1="579.1979" x2="1169.624" y2="774.2189">
				<stop  offset="0" style="stop-color:#FFFFFF"/>
				<stop  offset="1" style="stop-color:#000000"/>
			</linearGradient>
			
				<path style="mask:url(#SVGID_00000181805600675797210660000016831934313146228614_);fill:url(#SVGID_00000008122746260267358920000012432525742812803260_);" d="
				M1317.3,851.4c-2,2.6-4.6,4.9-7.7,6.6c-10,5.7-20.3,10.7-30.9,14.9l-219.9-146.8l20.6-33.6L1317.3,851.4z"/>
		</g>
	</mask>
	
		<linearGradient id="SVGID_00000111164543269390353210000004226801381653455035_" gradientUnits="userSpaceOnUse" x1="923.4338" y1="579.1979" x2="1169.624" y2="774.2189">
		<stop  offset="0" style="stop-color:#FFFFFF"/>
		<stop  offset="1" style="stop-color:#FFFFFF"/>
	</linearGradient>
	<path style="opacity:0.3;fill:url(#SVGID_00000111164543269390353210000004226801381653455035_);" d="M1317.3,851.4
		c-2,2.6-4.6,4.9-7.7,6.6c-10,5.7-20.3,10.7-30.9,14.9l-219.9-146.8l20.6-33.6L1317.3,851.4z"/>
	<g>
		<path class="st2" d="M1174.3,824.1c-32.9,0-65.7-5.5-97.3-16.3c-19.1-6.6-37-14.9-53.1-24.8c-1-0.6-1.7-1.6-2-2.7
			c-0.3-1.1-0.1-2.3,0.5-3.3l129.3-210.8c4.6-7.5,12.6-11.8,21.4-11.5c8.8,0.3,16.5,5.2,20.5,13.1l112.8,220.1
			c1.1,2.1,0.3,4.8-1.9,5.8c-16.8,8.6-35.3,15.6-54.9,20.7C1225,820.9,1199.6,824.1,1174.3,824.1z M1032.2,777.8
			c14.6,8.6,30.6,15.9,47.7,21.8c54.2,18.7,112.2,20.9,167.8,6.4c17.5-4.5,34-10.6,49.2-18.1L1186,571.8c-2.6-5-7.5-8.1-13.1-8.4
			c-5.6-0.2-10.8,2.5-13.7,7.3L1032.2,777.8z"/>
	</g>
	<g>
		<g>
			<path class="st2" d="M1094,743.9c-2.4,6.7-0.4,9.5,2.9,10.7c3.3,1.2,6.6,0.3,9-6.4c1.3-3.8,1.3-9,0.6-12.8
				c-0.5-2.6-2.8-3-4.8-1.7C1098.5,735.8,1095.4,740.2,1094,743.9z"/>
		</g>
		<g>
			<path class="st2" d="M1218.9,748.1c2.3,6.7,5.6,7.7,8.9,6.5c3.3-1.1,5.3-3.9,3-10.7c-1.3-3.8-4.6-7.9-7.5-10.3
				c-2.1-1.7-4.1-0.6-4.8,1.7C1217.3,739,1217.6,744.3,1218.9,748.1z"/>
		</g>
		<g>
			<path class="st2" d="M1181.2,693.7c0.6,7.1,3.6,8.8,7,8.6s6.2-2.5,5.6-9.6c-0.3-4-2.5-8.8-4.7-11.9c-1.6-2.2-3.8-1.6-5.1,0.4
				C1181.9,684.5,1180.8,689.7,1181.2,693.7z"/>
		</g>
		<g>
			<path class="st2" d="M1133,689c-1.8,6.9,0.5,9.5,3.9,10.4c3.4,0.9,6.6-0.3,8.4-7.2c1-3.9,0.5-9.1-0.6-12.8
				c-0.8-2.6-3.1-2.8-5-1.3C1136.7,680.5,1134,685.2,1133,689z"/>
		</g>
		<g>
			<path class="st2" d="M1158.3,756.7c-0.7,7.1,2,9.3,5.4,9.6s6.5-1.4,7.2-8.4c0.4-4-0.9-9.1-2.6-12.5c-1.2-2.4-3.5-2.2-5.1-0.5
				C1160.6,747.7,1158.7,752.7,1158.3,756.7z"/>
		</g>
	</g>
	<g class="st1">
		<g>
			<path class="st2" d="M1098.8,748.9c-2.4,6.7-0.4,9.5,2.9,10.7c3.3,1.2,6.6,0.3,9-6.4c1.3-3.8,1.3-9,0.6-12.8
				c-0.5-2.6-2.8-3-4.8-1.7C1103.3,740.7,1100.2,745.1,1098.8,748.9z"/>
		</g>
		<g>
			<path class="st2" d="M1223.7,753.1c2.3,6.7,5.6,7.7,8.9,6.5c3.3-1.1,5.3-3.9,3-10.7c-1.3-3.8-4.6-7.9-7.5-10.3
				c-2.1-1.7-4.1-0.6-4.8,1.7C1222.1,743.9,1222.4,749.3,1223.7,753.1z"/>
		</g>
		<g>
			<path class="st2" d="M1186,698.7c0.6,7.1,3.6,8.8,7,8.6c3.5-0.3,6.2-2.5,5.6-9.6c-0.3-4-2.5-8.8-4.7-11.9
				c-1.6-2.2-3.8-1.6-5.1,0.4C1186.7,689.4,1185.7,694.6,1186,698.7z"/>
		</g>
		<g>
			<path class="st2" d="M1137.8,694c-1.8,6.9,0.5,9.5,3.9,10.4c3.4,0.9,6.6-0.3,8.4-7.2c1-3.9,0.5-9.1-0.6-12.8
				c-0.8-2.6-3.1-2.8-5-1.3C1141.5,685.5,1138.8,690.1,1137.8,694z"/>
		</g>
		<g>
			<path class="st2" d="M1163.2,761.6c-0.7,7.1,2,9.3,5.4,9.6s6.5-1.4,7.2-8.4c0.4-4-0.9-9.1-2.6-12.5c-1.2-2.4-3.5-2.2-5.1-0.5
				C1165.5,752.6,1163.5,757.6,1163.2,761.6z"/>
		</g>
	</g>
	<g>
		<path class="st2" d="M1173.3,851.4c-32.9,0-65.7-5.5-97.3-16.3c-23.7-8.2-45.4-19-64.5-32.3c-1.9-1.3-2.4-3.9-1.2-5.8l12.3-20
			l129.3-210.8c4.6-7.5,12.6-11.8,21.4-11.5c8.8,0.3,16.5,5.2,20.5,13.1l123.5,241c1.1,2.1,0.3,4.6-1.7,5.7
			c-20,11.7-42.5,20.9-66.8,27.2C1223.9,848.2,1198.6,851.4,1173.3,851.4z M1019.8,798c17.6,11.8,37.5,21.5,59,28.9
			c54.2,18.7,112.2,20.9,167.8,6.4c22.1-5.8,42.6-13.9,61.1-24.3l-8.8-17.2L1186,571.8c-2.6-5-7.5-8.1-13.1-8.4
			c-5.6-0.2-10.8,2.5-13.7,7.3L1019.8,798z"/>
	</g>
	<g>
		<path class="st2" d="M1171.5,897.6c-32.9,0-65.7-5.5-97.3-16.3c-22.9-7.9-44-18.3-62.6-30.9c-13.5-9.2-17.4-27.2-8.9-41.1
			l149.1-243c4.6-7.5,12.6-11.8,21.4-11.5c8.8,0.3,16.5,5.2,20.5,13.1l130.1,253.8v0c7.4,14.5,2.1,32.2-12,40.3
			c-19.5,11.2-41.3,19.9-64.8,26C1222.1,894.3,1196.8,897.6,1171.5,897.6z M1172.3,563.4c-5.4,0-10.2,2.7-13.1,7.3l-149.1,243
			c-6.1,9.9-3.3,22.8,6.4,29.3c18,12.2,38.3,22.2,60.5,29.9c54.2,18.7,112.2,20.9,167.8,6.4c22.7-5.9,43.8-14.4,62.7-25.2
			c10.1-5.8,13.9-18.4,8.6-28.8c0,0,0,0,0,0L1186,571.8c-2.6-5-7.5-8.1-13.1-8.4C1172.7,563.4,1172.5,563.4,1172.3,563.4z"/>
	</g>
	<g class="st1">
		<path class="st5" d="M1179.2,794.2c-0.5,6.6-13.8,11-29.7,9.9c-15.9-1.1-28.5-7.3-28.1-13.9c0.5-6.6,13.1-2,29.1-0.9
			S1179.7,787.7,1179.2,794.2z"/>
	</g>
	<g class="st1">
		<path class="st5" d="M1213.2,793.6c0.2,3.4-4,6.5-9.4,6.8c-5.4,0.3-9.9-2.2-10.1-5.6c-0.2-3.4,4.1-5,9.5-5.4
			S1212.9,790.2,1213.2,793.6z"/>
	</g>
</g>
<g>
	<g>
		<circle class="st22" cx="746.2" cy="773.1" r="120.1"/>
	</g>
	<g class="st4">
		<path class="st5" d="M866.3,766.7c0,1.7,0,3.4-0.1,5.1c-2.6-64-55.4-115.1-120-115.1s-117.4,51.1-120,115.1
			c-0.1-1.7-0.1-3.4-0.1-5.1c0-66.3,53.8-120.1,120.1-120.1S866.3,700.3,866.3,766.7z"/>
	</g>
	<g>
		<path class="st2" d="M746.2,652.9c66.3,0,120.1,53.8,120.1,120.1c0,66.3-53.8,120.1-120.1,120.1c-66.3,0-120.1-53.8-120.1-120.1
			C626.1,706.7,679.9,652.9,746.2,652.9 M746.2,644.2c-71,0-128.8,57.8-128.8,128.8c0,71,57.8,128.8,128.8,128.8
			S875,844.1,875,773.1C875,702,817.2,644.2,746.2,644.2L746.2,644.2z"/>
	</g>
	<g>
		<circle class="st23" cx="746.2" cy="773.1" r="105.6"/>
	</g>
	<g>
		<path class="st2" d="M746.2,882.3c-60.2,0-109.3-49-109.3-109.3c0-60.2,49-109.3,109.3-109.3s109.3,49,109.3,109.3
			C855.5,833.3,806.5,882.3,746.2,882.3z M746.2,671c-56.3,0-102,45.8-102,102c0,56.3,45.8,102,102,102s102-45.8,102-102
			C848.2,716.8,802.5,671,746.2,671z"/>
	</g>
	<g>
		<g>
			<path class="st24" d="M829.9,773.1h-83.7l58.1-60.2C825.5,723.8,836.4,748.6,829.9,773.1z"/>
		</g>
		<g>
			<path class="st24" d="M746.2,773.1v83.7c-3.2,0.8-6.3,1.3-9.4,1.6c-22,2-40.8-8.4-48.7-25.1l15.9-16.5l15.9-16.5l14.4-14.9
				L746.2,773.1z"/>
		</g>
		<g>
			<path class="st24" d="M746.2,773.1l-58.1,60.2c-20.6-11.4-30.8-39.6-25.6-60.2H746.2z"/>
		</g>
		<g>
			<path class="st24" d="M825.7,812.7c-3.3,6.1-7.8,11.2-13.1,14.4c-1.3,0.8-2.7,1.5-4.1,2l-62.2-56h83.7c1.5,3.5,2.3,7.4,2.5,11.5
				C832.9,793.9,830.4,804.2,825.7,812.7z"/>
		</g>
		<g>
			<path class="st24" d="M746.2,773.1h-83.7c-1.2-3.6-1.9-7.4-2.1-11.4c-0.5-9.5,2-19.6,6.8-28c3.5-6.3,8.3-11.6,14.1-15.2
				c0.9-0.5,1.7-1,2.6-1.4L746.2,773.1z"/>
		</g>
		<g>
			<path class="st24" d="M808.4,829.1c-3.7,10.2-11.4,18.3-21.1,23.5c-6.4,3.4-13.7,5.6-21.2,6.2c-6.5,0.5-13.3-0.1-19.9-2v-83.7
				L808.4,829.1z"/>
		</g>
		<g>
			<path class="st24" d="M746.2,689.4v83.7L684,717c5.3-10.2,13.3-18.4,22.8-23.7c6-3.3,12.7-5.5,19.7-6.1
				C732.9,686.6,739.5,687.2,746.2,689.4z"/>
		</g>
		<g>
			<path class="st24" d="M804.4,712.8l-15.8,16.3l-15.9,16.5l-13.5,13.9l-13,13.5v-83.7c3-1.1,6-1.9,9.1-2.3
				C776,683.9,797,695.2,804.4,712.8z"/>
		</g>
	</g>
	<g class="st4">
		<g>
			<path class="st5" d="M831.5,764.1c-1.7-17.3-11.6-32.8-27.2-40.8c-1-2.3-2.2-4.6-3.6-6.7l3.6-3.8
				C823,722.4,833.6,742.8,831.5,764.1z"/>
		</g>
		<g>
			<path class="st5" d="M688.1,720.7c-1.5,2.1-2.9,4.4-4.1,6.8c-13.2,6.5-21.7,21.8-23.3,37.2c-2.1-18.3,7.1-39.7,23.3-47.6
				L688.1,720.7z"/>
		</g>
		<g>
			<path class="st5" d="M746.2,689.4v10.5c-22.8-7.2-45.3,2.7-58.1,20.9L684,717C695.7,694.6,720.8,681.3,746.2,689.4z"/>
		</g>
		<g>
			<path class="st5" d="M804.4,712.8l-3.6,3.8c-10.9-16-33.9-24.5-54.5-16.8v-10.5C769.5,680.7,796,692.6,804.4,712.8z"/>
		</g>
	</g>
	<g class="st1">
		<g>
			<path class="st2" d="M746.2,838.5v18.2c-25.9,6.4-49.1-4.5-58.1-23.5l7.3-7.6C706.8,837.8,725.6,843.6,746.2,838.5z"/>
		</g>
		<g>
			<path class="st2" d="M695.4,825.7l-7.3,7.6c-19.8-10.9-30-37.4-26.1-57.7C662.7,791.8,675,813.4,695.4,825.7z"/>
		</g>
		<g>
			<path class="st2" d="M808.4,829.1l-6.9-6.2c14.2-6.2,31.1-30.9,30-44.6C835.7,796.6,825.5,822.6,808.4,829.1z"/>
		</g>
		<g>
			<path class="st2" d="M808.4,829.1c-8.2,22.9-36.7,35.2-62.2,27.7v-18.2c20.5,6,43.1-0.8,55.3-15.7L808.4,829.1z"/>
		</g>
	</g>
	<defs>
		
			<filter id="Adobe_OpacityMaskFilter_00000076575849853151932220000012468939647248515497_" filterUnits="userSpaceOnUse" x="660.4" y="733.7" width="105.7" height="125.3">
			<feFlood  style="flood-color:white;flood-opacity:1" result="back"/>
			<feBlend  in="SourceGraphic" in2="back" mode="normal"/>
		</filter>
	</defs>
	
		<mask maskUnits="userSpaceOnUse" x="660.4" y="733.7" width="105.7" height="125.3" id="SVGID_00000173874593526264839430000003408241215591391674_">
		<g style="filter:url(#Adobe_OpacityMaskFilter_00000076575849853151932220000012468939647248515497_);">
			<defs>
				
					<filter id="Adobe_OpacityMaskFilter_00000178922114746160991490000010577608647141860744_" filterUnits="userSpaceOnUse" x="660.4" y="733.7" width="105.7" height="125.3">
					<feFlood  style="flood-color:white;flood-opacity:1" result="back"/>
					<feBlend  in="SourceGraphic" in2="back" mode="normal"/>
				</filter>
			</defs>
			
				<mask maskUnits="userSpaceOnUse" x="660.4" y="733.7" width="105.7" height="125.3" id="SVGID_00000173874593526264839430000003408241215591391674_">
				<g style="filter:url(#Adobe_OpacityMaskFilter_00000178922114746160991490000010577608647141860744_);">
				</g>
			</mask>
			
				<linearGradient id="SVGID_00000004530968083371319370000004652232750445896604_" gradientUnits="userSpaceOnUse" x1="638.7272" y1="688.405" x2="714.0327" y2="811.5005">
				<stop  offset="0" style="stop-color:#FFFFFF"/>
				<stop  offset="1" style="stop-color:#000000"/>
			</linearGradient>
			
				<path style="mask:url(#SVGID_00000173874593526264839430000003408241215591391674_);fill:url(#SVGID_00000004530968083371319370000004652232750445896604_);" d="
				M766.1,858.8c-6.5,0.5-13.3-0.1-19.9-2c-3.2,0.8-6.3,1.3-9.4,1.6L704,816.8l-34.6-43.7l-9-11.4c-0.5-9.5,2-19.6,6.8-28l31.1,39.4
				l21.5,27.3l26.3,33.3L766.1,858.8z"/>
		</g>
	</mask>
	
		<linearGradient id="SVGID_00000101803744930024271600000013952085972604777612_" gradientUnits="userSpaceOnUse" x1="638.7272" y1="688.405" x2="714.0327" y2="811.5005">
		<stop  offset="0" style="stop-color:#FFFFFF"/>
		<stop  offset="1" style="stop-color:#FFFFFF"/>
	</linearGradient>
	<path style="opacity:0.3;fill:url(#SVGID_00000101803744930024271600000013952085972604777612_);" d="M766.1,858.8
		c-6.5,0.5-13.3-0.1-19.9-2c-3.2,0.8-6.3,1.3-9.4,1.6L704,816.8l-34.6-43.7l-9-11.4c-0.5-9.5,2-19.6,6.8-28l31.1,39.4l21.5,27.3
		l26.3,33.3L766.1,858.8z"/>
	<defs>
		
			<filter id="Adobe_OpacityMaskFilter_00000049927907925706895030000001151084482044413610_" filterUnits="userSpaceOnUse" x="726.5" y="687" width="106" height="125.7">
			<feFlood  style="flood-color:white;flood-opacity:1" result="back"/>
			<feBlend  in="SourceGraphic" in2="back" mode="normal"/>
		</filter>
	</defs>
	
		<mask maskUnits="userSpaceOnUse" x="726.5" y="687" width="106" height="125.7" id="SVGID_00000003081948349041984230000016795730830280381845_">
		<g style="filter:url(#Adobe_OpacityMaskFilter_00000049927907925706895030000001151084482044413610_);">
			<defs>
				
					<filter id="Adobe_OpacityMaskFilter_00000075149265565044258930000005419351550836462758_" filterUnits="userSpaceOnUse" x="726.5" y="687" width="106" height="125.7">
					<feFlood  style="flood-color:white;flood-opacity:1" result="back"/>
					<feBlend  in="SourceGraphic" in2="back" mode="normal"/>
				</filter>
			</defs>
			
				<mask maskUnits="userSpaceOnUse" x="726.5" y="687" width="106" height="125.7" id="SVGID_00000003081948349041984230000016795730830280381845_">
				<g style="filter:url(#Adobe_OpacityMaskFilter_00000075149265565044258930000005419351550836462758_);">
				</g>
			</mask>
			
				<linearGradient id="SVGID_00000133513639381258079580000003572064958877705898_" gradientUnits="userSpaceOnUse" x1="693.0226" y1="626.4255" x2="812.4974" y2="777.7601">
				<stop  offset="0" style="stop-color:#FFFFFF"/>
				<stop  offset="1" style="stop-color:#000000"/>
			</linearGradient>
			
				<path style="mask:url(#SVGID_00000003081948349041984230000016795730830280381845_);fill:url(#SVGID_00000133513639381258079580000003572064958877705898_);" d="
				M825.7,812.7l-31.3-39.7l-21.7-27.4l-26.5-33.5l-19.7-24.9c6.4-0.6,13,0,19.7,2.1c3-1.1,6-1.9,9.1-2.3l33.3,42.1l34.7,43.9
				l9.1,11.5C832.9,793.9,830.4,804.2,825.7,812.7z"/>
		</g>
	</mask>
	
		<linearGradient id="SVGID_00000022532372325500589270000011549749603750357931_" gradientUnits="userSpaceOnUse" x1="693.0226" y1="626.4255" x2="812.4974" y2="777.7601">
		<stop  offset="0" style="stop-color:#FFFFFF"/>
		<stop  offset="1" style="stop-color:#FFFFFF"/>
	</linearGradient>
	<path style="opacity:0.3;fill:url(#SVGID_00000022532372325500589270000011549749603750357931_);" d="M825.7,812.7l-31.3-39.7
		l-21.7-27.4l-26.5-33.5l-19.7-24.9c6.4-0.6,13,0,19.7,2.1c3-1.1,6-1.9,9.1-2.3l33.3,42.1l34.7,43.9l9.1,11.5
		C832.9,793.9,830.4,804.2,825.7,812.7z"/>
	<defs>
		
			<filter id="Adobe_OpacityMaskFilter_00000049198537341629739190000005831818702880065176_" filterUnits="userSpaceOnUse" x="681.4" y="693.3" width="131.2" height="159.3">
			<feFlood  style="flood-color:white;flood-opacity:1" result="back"/>
			<feBlend  in="SourceGraphic" in2="back" mode="normal"/>
		</filter>
	</defs>
	
		<mask maskUnits="userSpaceOnUse" x="681.4" y="693.3" width="131.2" height="159.3" id="SVGID_00000145030787029623622320000012843491788235201703_">
		<g style="filter:url(#Adobe_OpacityMaskFilter_00000049198537341629739190000005831818702880065176_);">
			<defs>
				
					<filter id="Adobe_OpacityMaskFilter_00000175312053914280831460000008828818013486630814_" filterUnits="userSpaceOnUse" x="681.4" y="693.3" width="131.2" height="159.3">
					<feFlood  style="flood-color:white;flood-opacity:1" result="back"/>
					<feBlend  in="SourceGraphic" in2="back" mode="normal"/>
				</filter>
			</defs>
			
				<mask maskUnits="userSpaceOnUse" x="681.4" y="693.3" width="131.2" height="159.3" id="SVGID_00000145030787029623622320000012843491788235201703_">
				<g style="filter:url(#Adobe_OpacityMaskFilter_00000175312053914280831460000008828818013486630814_);">
				</g>
			</mask>
			
				<linearGradient id="SVGID_00000088851546896038133740000007800750433658823582_" gradientUnits="userSpaceOnUse" x1="669.5275" y1="653.321" x2="745.5571" y2="770.6239">
				<stop  offset="0" style="stop-color:#FFFFFF"/>
				<stop  offset="1" style="stop-color:#000000"/>
			</linearGradient>
			
				<path style="mask:url(#SVGID_00000145030787029623622320000012843491788235201703_);fill:url(#SVGID_00000088851546896038133740000007800750433658823582_);" d="
				M812.5,827.1c-1.3,0.8-2.7,1.5-4.1,2c-3.7,10.2-11.4,18.3-21.1,23.5l-41.1-52l-11.9-15.1l-9.8-12.4l-43.1-54.6
				c0.9-0.5,1.7-1,2.6-1.4c5.3-10.2,13.3-18.4,22.8-23.7l39.4,49.8l13,16.5l10.6,13.5L812.5,827.1z"/>
		</g>
	</mask>
	
		<linearGradient id="SVGID_00000060714240352133686360000007717062827086873278_" gradientUnits="userSpaceOnUse" x1="669.5275" y1="653.321" x2="745.5571" y2="770.6239">
		<stop  offset="0" style="stop-color:#FFFFFF"/>
		<stop  offset="1" style="stop-color:#FFFFFF"/>
	</linearGradient>
	<path style="opacity:0.3;fill:url(#SVGID_00000060714240352133686360000007717062827086873278_);" d="M812.5,827.1
		c-1.3,0.8-2.7,1.5-4.1,2c-3.7,10.2-11.4,18.3-21.1,23.5l-41.1-52l-11.9-15.1l-9.8-12.4l-43.1-54.6c0.9-0.5,1.7-1,2.6-1.4
		c5.3-10.2,13.3-18.4,22.8-23.7l39.4,49.8l13,16.5l10.6,13.5L812.5,827.1z"/>
	<g class="st1">
		<path class="st2" d="M866.3,773.1c0,66.3-53.8,120.1-120.1,120.1s-120.1-53.8-120.1-120.1c0-5.8,0.4-11.4,1.2-17
			c8.2,58.3,58.3,103.1,118.9,103.1s110.7-44.8,118.9-103.1C865.9,761.6,866.3,767.3,866.3,773.1z"/>
	</g>
	<g>
		<g>
			<path class="st2" d="M829.9,776.7h-83.7c-1.5,0-2.8-0.9-3.3-2.2c-0.6-1.3-0.3-2.9,0.7-3.9l58.1-60.2c1.1-1.1,2.8-1.4,4.3-0.7
				c23,11.9,34.3,38.3,27.4,64.4C833,775.6,831.6,776.7,829.9,776.7z M754.7,769.4h72.3c4.4-20.9-4.4-41.7-22-52.1L754.7,769.4z"/>
		</g>
		<g>
			<path class="st2" d="M731.6,862.2c-20.4,0-38.5-10.1-46.8-27.4c-0.7-1.4-0.4-3,0.7-4.1l58.1-60.2c1-1.1,2.6-1.4,4-0.8
				c1.4,0.6,2.3,1.9,2.3,3.4v83.7c0,1.7-1.1,3.1-2.8,3.5C741.8,861.6,736.6,862.2,731.6,862.2z M692.5,833.9
				c9.1,16.1,29,24.1,50.1,19.9V782L692.5,833.9z"/>
		</g>
		<g>
			<path class="st2" d="M688.1,836.9c-0.6,0-1.2-0.1-1.7-0.5c-22.9-12.6-32.6-43.4-27.3-64.3c0.4-1.6,1.9-2.7,3.5-2.7h83.7
				c1.5,0,2.8,0.9,3.3,2.2s0.3,2.9-0.7,3.9l-58.1,60.2C690,836.5,689,836.9,688.1,836.9z M665.4,776.7c-3,17.3,4.7,40.8,22,52
				l50.2-52H665.4z"/>
		</g>
		<g>
			<path class="st2" d="M808.4,832.7c-0.9,0-1.7-0.3-2.4-0.9l-62.2-56c-1.1-1-1.5-2.6-1-4c0.5-1.4,1.9-2.3,3.4-2.3h83.7
				c1.5,0,2.8,0.9,3.3,2.2c4.4,10.4,3.6,24.9-1.9,37.8c-4.8,11.3-12.7,19.6-21.6,23C809.3,832.6,808.9,832.7,808.4,832.7z
				 M755.6,776.7l53.5,48.1c6.3-3.1,11.9-9.6,15.5-18.2c4.4-10.3,5.4-21.5,2.7-29.9H755.6z"/>
		</g>
		<g>
			<path class="st2" d="M746.2,776.7h-83.7c-1.6,0-2.9-1-3.4-2.5c-7.4-21.9,3.7-50.7,23.3-60.4c1.3-0.7,2.9-0.4,4,0.6l62.2,56
				c1.1,1,1.5,2.6,1,4C749.1,775.8,747.7,776.7,746.2,776.7z M665.2,769.4h71.6l-53.3-48C669.1,730.1,660.7,752.1,665.2,769.4z"/>
		</g>
		<g>
			<path class="st2" d="M761.3,862.5c-5.4,0-10.8-0.7-16.1-2.3c-1.5-0.5-2.6-1.9-2.6-3.5v-83.7c0-1.4,0.8-2.7,2.1-3.3
				c1.3-0.6,2.8-0.3,3.9,0.6l62.2,56c1.1,1,1.5,2.5,1,3.9C804.8,849.8,783.6,862.5,761.3,862.5z M749.8,854
				c22.3,5.2,46.1-5.3,54.3-23.9l-54.3-48.9V854z"/>
		</g>
		<g>
			<path class="st2" d="M746.2,776.7c-0.9,0-1.7-0.3-2.4-0.9l-62.2-56c-1.2-1.1-1.6-2.9-0.8-4.4c13.3-25.6,40.6-37.7,66.5-29.5
				c1.5,0.5,2.5,1.9,2.5,3.5v83.7c0,1.4-0.8,2.7-2.1,3.3C747.2,776.6,746.7,776.7,746.2,776.7z M688.6,716.3l54,48.7v-72.8
				C721.7,686.7,700.1,696.4,688.6,716.3z"/>
		</g>
		<g>
			<path class="st2" d="M746.2,776.7c-0.5,0-0.9-0.1-1.4-0.3c-1.4-0.6-2.3-1.9-2.3-3.4v-83.7c0-1.5,0.9-2.9,2.4-3.4
				c24.5-9.1,53.2,2.6,62.8,25.5c0.6,1.3,0.3,2.9-0.7,3.9l-58.1,60.2C748.1,776.3,747.2,776.7,746.2,776.7z M749.8,691.9v72.1
				l50.2-52C791.5,695.1,769.1,686.1,749.8,691.9z"/>
		</g>
	</g>
	<g class="st1">
		<path class="st5" d="M783.3,821.7c1.7,3.5-1.7,8.6-7.6,11.5c-5.9,2.9-12.1,2.5-13.8-1c-1.7-3.5,4.2-3.6,10.1-6.5
			C777.9,822.8,781.6,818.2,783.3,821.7z"/>
	</g>
	<g class="st1">
		<path class="st5" d="M817.2,785.7c3.1,2.3,2.4,8.4-1.5,13.7c-3.9,5.3-9.6,7.7-12.7,5.4c-3.1-2.3,2.1-5.1,6-10.4
			C812.9,789.2,814.1,783.4,817.2,785.7z"/>
	</g>
	<g class="st1">
		<path class="st5" d="M738.1,829.1c-0.9,3.7-6.8,5.5-13.2,4c-6.4-1.5-10.9-5.8-10-9.5c0.9-3.7,5.5-0.1,11.9,1.4
			C733.2,826.5,739,825.3,738.1,829.1z"/>
	</g>
	<g class="st1">
		<path class="st5" d="M694.3,804.1c-3,2.4-8.8,0.2-12.9-5c-4.1-5.1-5-11.3-1.9-13.6c3-2.4,4.4,3.3,8.5,8.5
			C692.1,799.1,697.3,801.7,694.3,804.1z"/>
	</g>
</g>
</svg>
