<?xml version="1.0" encoding="utf-8"?>
<!-- Generator: Adobe Illustrator 26.4.1, SVG Export Plug-In . SVG Version: 6.00 Build 0)  -->
<svg version="1.1" xmlns="http://www.w3.org/2000/svg" xmlns:xlink="http://www.w3.org/1999/xlink" x="0px" y="0px"
	 viewBox="-848.249 -565.501 2340 1560.002" enable-background="new -848.249 -565.501 2340 1560.002" xml:space="preserve">
<g id="background">
	<rect id="_273440472" x="-848.249" y="-565.5" fill="#D5EAD8" width="2340" height="1559.993"/>
</g>
<g id="midground">
	<g id="Layer_x0020_1">
		<g id="_271214928">
			<g>
				<path id="_273536824" fill="#FE8100" d="M-208.449-195.451c0,0,86.665-12.745,147.838,43.97
					C0.564-94.767,8.848,2.091-41.493,86.208c-50.341,84.115-237.689,93.037-296.317,0.637
					C-396.436-5.554-374.769-172.51-208.449-195.451z"/>
				<path id="_273440616" fill="#549266" d="M-148.231-224.129c0,0,62.131-28.038,99.408,6.055
					c37.28,34.091,30.906,40.465,52.891,72.963c21.985,32.498,27.084,39.826,37.916,65.317c10.834,25.49,7.33,28.356-19.435,8.919
					c-26.764-19.436-52.251-22.939-88.576-35.684c-36.322-12.745-38.553-15.295-54.165-46.518
					C-135.808-184.301-151.738-184.622-148.231-224.129z"/>
				<path id="_273538096" fill="#306841" d="M-101.604-262.65c1.95-1.293,2.486-3.924,1.195-5.874
					c-1.293-1.951-3.924-2.487-5.876-1.196c-0.209,0.141-73.224,47.726-74.537,125.183c-0.035,2.336,1.829,4.261,4.166,4.298
					c2.337,0.036,4.261-1.83,4.298-4.165C-171.12-217.335-101.802-262.519-101.604-262.65z"/>
				<path id="_440888264" fill="#D9720B" d="M-315.351,15.47c2.376,0,4.3,1.926,4.3,4.302s-1.924,4.303-4.3,4.303
					c-2.378,0-4.303-1.927-4.303-4.303S-317.729,15.47-315.351,15.47z M-136.606,56.89c2.727,0,4.939,2.211,4.939,4.938
					c0,2.728-2.212,4.94-4.939,4.94c-2.728,0-4.94-2.212-4.94-4.94C-141.546,59.101-139.334,56.89-136.606,56.89z M-200.81,33.95
					c1.76,0,3.188,1.426,3.188,3.186c0,1.76-1.428,3.185-3.188,3.185c-1.759,0-3.185-1.426-3.185-3.185
					C-203.995,35.375-202.569,33.95-200.81,33.95z M-256.248,37.773c3.166,0,5.735,2.567,5.735,5.734
					c0,3.168-2.569,5.735-5.735,5.735c-3.167,0-5.735-2.567-5.735-5.735C-261.983,40.34-259.415,37.773-256.248,37.773z
					 M-287.95,101.178c2.024,0,3.665-1.64,3.665-3.665c0-2.024-1.641-3.663-3.665-3.663c-2.024,0-3.665,1.639-3.665,3.663
					C-291.615,99.539-289.975,101.178-287.95,101.178z M-232.034,96.4c2.114,0,3.824,1.712,3.824,3.822
					c0,2.113-1.71,3.825-3.824,3.825c-2.111,0-3.823-1.712-3.823-3.825C-235.857,98.112-234.146,96.4-232.034,96.4z
					 M-207.022,76.645c2.375,0,4.3,1.925,4.3,4.301c0,2.377-1.925,4.302-4.3,4.302c-2.376,0-4.3-1.925-4.3-4.302
					C-211.322,78.57-209.397,76.645-207.022,76.645z M-190.612,57.528c1.23,0,2.23,0.998,2.23,2.229c0,1.233-1,2.23-2.23,2.23
					c-1.232,0-2.23-0.998-2.23-2.23C-192.842,58.526-191.845,57.528-190.612,57.528z M-172.61,30.764
					c1.671,0,3.024,1.354,3.024,3.026c0,1.67-1.353,3.025-3.024,3.025c-1.672,0-3.027-1.355-3.027-3.025
					C-175.637,32.118-174.282,30.764-172.61,30.764z M-111.914,76.007c0.527,0,0.954,0.428,0.954,0.955
					c0,0.527-0.426,0.954-0.954,0.954c-0.527,0-0.955-0.427-0.955-0.954C-112.869,76.435-112.441,76.007-111.914,76.007z
					 M-114.146,109.781c2.464,0,4.462-1.996,4.462-4.461c0-2.464-1.998-4.46-4.462-4.46c-2.462,0-4.46,1.996-4.46,4.46
					C-118.606,107.785-116.608,109.781-114.146,109.781z M-149.829,123.8c1.759,0,3.187,1.428,3.187,3.188
					c0,1.759-1.427,3.185-3.187,3.185c-1.76,0-3.188-1.426-3.188-3.185C-153.017,125.228-151.589,123.8-149.829,123.8z
					 M-204.632,119.34c2.287,0,4.141,1.855,4.141,4.141c0,2.286-1.854,4.142-4.141,4.142c-2.287,0-4.141-1.855-4.141-4.142
					C-208.772,121.196-206.919,119.34-204.632,119.34z M-186.79,96.717c2.287,0,4.142,1.855,4.142,4.141
					c0,2.289-1.855,4.143-4.142,4.143c-2.287,0-4.141-1.853-4.141-4.143C-190.93,98.573-189.076,96.717-186.79,96.717z
					 M-168.787,71.545c3.255,0,5.893,2.641,5.893,5.895c0,3.255-2.638,5.893-5.893,5.893c-3.256,0-5.895-2.639-5.895-5.893
					C-174.682,74.186-172.043,71.545-168.787,71.545z M-227.892,55.616c1.585,0,2.87,1.285,2.87,2.867
					c0,1.584-1.284,2.867-2.87,2.867c-1.582,0-2.866-1.283-2.866-2.867C-230.758,56.901-229.474,55.616-227.892,55.616z
					 M-290.82,26.302c1.672,0,3.027,1.355,3.027,3.027c0,1.671-1.355,3.025-3.027,3.025c-1.67,0-3.025-1.355-3.025-3.025
					C-293.845,27.658-292.49,26.302-290.82,26.302z M-343.229,10.69c2.287,0,4.141,1.855,4.141,4.144
					c0,2.287-1.854,4.141-4.141,4.141c-2.289,0-4.144-1.854-4.144-4.141C-347.373,12.545-345.518,10.69-343.229,10.69z
					 M-341.001-22.765c2.641,0,4.78,2.142,4.78,4.78c0,2.64-2.14,4.779-4.78,4.779c-2.64,0-4.779-2.14-4.779-4.779
					C-345.78-20.624-343.641-22.765-341.001-22.765z M-322.519-38.058c-1.408,0-2.55,1.141-2.55,2.548
					c0,1.408,1.142,2.548,2.55,2.548c1.406,0,2.548-1.14,2.548-2.548C-319.971-36.918-321.112-38.058-322.519-38.058z
					 M-250.193-16.392c1.582,0,2.866,1.285,2.866,2.867c0,1.584-1.284,2.867-2.866,2.867c-1.585,0-2.869-1.283-2.869-2.867
					C-253.063-15.107-251.778-16.392-250.193-16.392z M-276.8-28.818c0.968,0,1.753,0.785,1.753,1.753
					c0,0.967-0.785,1.752-1.753,1.752s-1.752-0.785-1.752-1.752C-278.552-28.033-277.768-28.818-276.8-28.818z M-283.968,0.177
					c1.584,0,2.867,1.283,2.867,2.865c0,1.584-1.283,2.868-2.867,2.868c-1.584,0-2.868-1.284-2.868-2.868
					C-286.835,1.46-285.552,0.177-283.968,0.177z M-277.118,45.1c2.727,0,4.94,2.213,4.94,4.939c0,2.728-2.213,4.938-4.94,4.938
					c-2.727,0-4.938-2.211-4.938-4.938C-282.056,47.313-279.845,45.1-277.118,45.1z M-231.397,13.24
					c3.345,0,6.055,2.711,6.055,6.055c0,3.342-2.709,6.053-6.055,6.053c-3.341,0-6.053-2.711-6.053-6.053
					C-237.45,15.951-234.738,13.24-231.397,13.24z M-255.133,78.557c4.839,0,8.763,3.922,8.763,8.761
					c0,4.838-3.924,8.763-8.763,8.763c-4.838,0-8.762-3.925-8.762-8.763C-263.895,82.479-259.971,78.557-255.133,78.557z
					 M-301.493,76.007c2.64,0,4.78,2.14,4.78,4.778c0,2.641-2.14,4.779-4.78,4.779c-2.638,0-4.778-2.139-4.778-4.779
					C-306.271,78.147-304.131,76.007-301.493,76.007z M-322.362,44.147c2.551,0,4.62,2.066,4.62,4.618c0,2.554-2.068,4.62-4.62,4.62
					c-2.552,0-4.62-2.066-4.62-4.62C-326.982,46.213-324.914,44.147-322.362,44.147z"/>
			</g>
			<g>
				<g>
					<path id="_273433128" fill="#FE8100" d="M-848.249,766.775c30.229-6.223,77.868-9.524,122.769,14.715
						c70.18,37.891,102.708,123.388,81.198,212.996h-203.968V766.775z"/>
					<path id="_273261944" fill="#549266" d="M-828.475,733.039c0,0,53.155-42.67,97.769-18.977
						c44.615,23.692,40.034,31.463,69.442,57.436c29.409,25.973,36.176,31.797,53.033,53.771
						c16.861,21.975,14.181,25.625-16.589,13.494c-30.771-12.13-56.328-9.154-94.682-12.421
						c-38.355-3.268-41.152-5.178-64.071-31.506C-806.491,768.5-821.997,772.172-828.475,733.039L-828.475,733.039z"/>
					<path id="_444667240" fill="#306841" d="M-792.951,684.09c1.566-1.74,1.429-4.425-0.311-5.987
						c-1.738-1.569-4.421-1.428-5.985,0.312c-0.169,0.185-58.979,64.502-40.896,139.828c0.551,2.273,2.836,3.672,5.108,3.125
						c2.271-0.554,3.668-2.84,3.12-5.105C-848.941,745.332-793.108,684.268-792.951,684.09L-792.951,684.09z"/>
					<path id="_444667384" fill="#D9720B" d="M-788.393,985.942c1.617-0.419,3.267,0.554,3.684,2.174
						c0.419,1.619-0.554,3.267-2.171,3.686c-1.619,0.412-3.271-0.561-3.688-2.181C-790.985,988.009-790.012,986.354-788.393,985.942
						z M-848.249,983.463c2.724-0.028,5.221,1.79,5.931,4.546c0.65,2.521-0.385,5.078-2.402,6.484h-3.528V983.463z"/>
				</g>
				<g>
					<path id="_444666784" fill="#FE8100" d="M1460.374,775.858c0,0,12.176-5.128,31.367-9.076v227.712h-138.846
						C1329.22,915.701,1351.681,820.482,1460.374,775.858z"/>
					<path id="_274773248" fill="#D9720B" d="M1491.751,994.494V983.47c-0.479,0.008-0.966,0.071-1.445,0.192
						c-3.238,0.838-5.185,4.141-4.35,7.372c0.376,1.463,1.257,2.663,2.407,3.459h3.384H1491.751z M1375.183,976.191
						c2.557-0.66,5.162,0.873,5.82,3.43c0.66,2.558-0.878,5.164-3.435,5.824c-2.554,0.66-5.163-0.881-5.82-3.438
						C1371.087,979.451,1372.625,976.844,1375.183,976.191z M1389.255,956.759c-1.363,0.355-2.184,1.74-1.832,3.103
						c0.352,1.363,1.744,2.188,3.104,1.832c1.363-0.348,2.184-1.74,1.832-3.104C1392.007,957.228,1390.618,956.412,1389.255,956.759
						L1389.255,956.759z M1464.698,959.671c1.535-0.398,3.098,0.525,3.494,2.06c0.395,1.534-0.525,3.097-2.059,3.494
						c-1.535,0.391-3.098-0.533-3.494-2.06C1462.245,961.631,1463.165,960.069,1464.698,959.671z M1435.835,954.288
						c0.934-0.249,1.89,0.319,2.135,1.257c0.241,0.938-0.323,1.89-1.261,2.131c-0.938,0.241-1.894-0.319-2.134-1.257
						C1434.333,955.481,1434.897,954.529,1435.835,954.288z M1436.138,984.152c1.533-0.398,3.096,0.526,3.49,2.06
						c0.397,1.533-0.525,3.096-2.06,3.494c-1.53,0.391-3.097-0.533-3.491-2.066C1433.683,986.113,1434.603,984.542,1436.138,984.152
						z"/>
				</g>
				<g>
					<path id="_274773848" fill="#549266" d="M-232.541,983.726c0,0,1.339,4.084,7.394,10.768h-13.417
						C-236.685,991.084-234.678,987.511-232.541,983.726z M-281.608,930.197c-0.772-2.841-33.135-8.601-62.45-28.991
						c-29.313-20.398-83.159-39.197-109.605-16.569c-26.444,22.62-27.399,25.17-67.228,41.42
						c-39.826,16.25-39.508,18.8-46.518,27.72c-7.008,8.921,7.01-7.969,34.412,7.962c14.551,8.466,35.572,23.21,63.68,32.756h110.81
						C-297.214,974.337-281.608,930.197-281.608,930.197z M-499.791,994.494c-33.351-10.675-83.526-15.32-105.352,0H-499.791z"/>
					<path id="_274776464" fill="#306841" d="M-236.94,934.956c-0.295,0.319-0.541,0.682-0.731,1.093
						c-14.655,21.592-33.311,42.564-56.713,58.445h14.407c15.341-11.925,28.517-25.902,39.765-40.547
						c-0.158,9.588,1.042,23.11,5.929,40.547h8.615c-9.952-33.658-5.286-51.684-4.32-54.78
						c7.264-10.816,13.561-21.747,18.971-32.279l0.003-0.007l0.048-0.086l0.045-0.092c20.373-39.723,28.19-73.707,28.236-73.898
						c0.531-2.28-0.889-4.561-3.171-5.093c-2.283-0.532-4.563,0.888-5.096,3.168c-0.043,0.185-7.53,32.713-26.907,70.873
						c-11.103,6.065-112.043,58.607-218.117,24.829c-2.227-0.703-4.605,0.525-5.311,2.756c-0.705,2.223,0.527,4.602,2.754,5.312
						c93.043,29.623,182.091-5.028,213.719-19.915C-228.505,921.809-232.541,928.407-236.94,934.956z"/>
				</g>
				<g>
					<path id="_273559040" fill="#FCEEA9" d="M-106.449,789.935c3.823-94.943,116.614-59.262,243.424,52.258
						c82.919,72.919,94.721,122.67,84.408,152.301H47.823C-33.212,946.169-109.271,859.984-106.449,789.935z"/>
					<path id="_273559472" fill="#FFBF3E" d="M-90.367,746.767c0,0-0.21,0.206-0.592,0.583c0.201-0.192,0.41-0.377,0.614-0.568
						L-90.367,746.767z M-92.34,748.77c-12.232,12.806-76.364,85.951-49.794,186.455c5.565,21.051,14.465,40.973,25.8,59.269H47.823
						c-81.035-48.324-157.093-134.51-154.271-204.559C-105.701,771.327-100.748,757.754-92.34,748.77z"/>
					<path id="_441267096" fill="#FFBF3E" d="M45.695,895.552c0,0,14.02,56.079,12.428,70.099
						c-1.595,14.013-21.35,7.003-51.618-15.938c-30.268-22.94-54.803-46.2-56.713-59.58c-1.912-13.381,35.686-3.502,60.855-2.55
						C35.818,888.542,42.192,889.501,45.695,895.552z M28.173,874.203c0,0-75.515-6.69-96.225-23.579
						c-20.71-16.882-20.391-53.21-10.513-72.642c9.877-19.439,42.377-25.49,59.9-9.56c17.525,15.93,32.5,53.849,40.147,69.46
						C29.128,853.493,46.015,878.663,28.173,874.203L28.173,874.203z M39.479,853.976c-0.32-2.551-28.995-51.3-29.633-72.649
						c-0.637-21.349,22.303-4.141,53.846,21.669c31.545,25.803,43.333,32.5,41.103,43.012c-2.229,10.511-35.845,29.311-43.65,33.614
						C53.338,883.925,48.08,873.408,39.479,853.976z M66.722,884.877c0,0,32.5-19.438,52.095-22.776
						c19.595-3.353,33.135,11.626,51.935,33.771c18.798,22.144,31.703,36.96,31.383,42.535c-0.32,5.575-27.876,3.821-56.236-6.534
						c-28.359-10.354-63.565-25.007-70.575-29.467C68.314,897.939,59.234,889.018,66.722,884.877L66.722,884.877z M71.823,909.891
						c0,0,75.195,25.49,104.825,43.65c26.705,16.364,33.997,30.405,27.717,40.944H93.733c-5.163-4.339-9.497-9.56-12.99-16.094
						C70.868,959.913,46.333,898.102,71.823,909.891z"/>
					<path id="_440887064" fill="#E3A019" d="M-54.984,963.094c2.289,0,4.145,1.86,4.145,4.147c0,2.287-1.856,4.141-4.145,4.141
						c-2.287,0-4.142-1.854-4.142-4.141C-59.126,964.955-57.271,963.094-54.984,963.094z M-10.377,979.344
						c1.408,0,2.55,1.144,2.55,2.55c0,1.413-1.142,2.55-2.55,2.55c-1.406,0-2.548-1.137-2.548-2.55
						C-12.925,980.488-11.783,979.344-10.377,979.344z"/>
				</g>
				<g>
					<path id="_273839312" fill="#549266" d="M632.308,994.494c1.79-4.021,4.041-7.884,6.854-11.506
						c28.68-36.96,22.94-35.05,59.266-70.1c36.32-35.049,63.085-22.94,104.506-21.661c41.42,1.271,32.5-5.1,10.83,16.562
						c-21.665,21.67-10.83,49.07-44.605,82.841c-1.268,1.272-2.489,2.558-3.682,3.864H632.308z M508.856,823.039
						c0,0-80.93-30.263-113.43-88.253c-32.496-57.989-3.824-70.731-0.637-121.711c3.186-50.979-2.549-46.519-3.824-76.47
						c-1.274-29.95,3.824-17.844,16.566,5.1c12.748,22.94,67.549,36.96,101.96,117.883
						C543.902,740.517,548.362,755.816,508.856,823.039z M339.407,994.494c-5.361-1.996-10.966-4.603-16.947-8.005
						c-44.288-25.17-64.363-36.001-62.45-28.671c1.119,4.282,3.659,16.427,11.695,36.676H339.407z M485.905,903.329
						c0,0-13.06-27.081-20.391-53.522c-7.326-26.448-42.375-42.059-95.586-60.22c-53.209-18.16-61.493-9.879-90.805-29.95
						c-29.314-20.078-26.765-9.24-3.825,23.26c22.94,32.493,25.49,51.932,53.526,103.231
						C356.864,937.427,415.175,952.398,485.905,903.329z M580.216,970.558c0,0-45.877-53.842-28.672-91.44
						c17.206-37.6,22.941-36.96,43.967-75.198c21.03-38.231,38.875-47.152,75.195-50.341c36.324-3.183,45.885-6.371,67.55-14.021
						c21.665-7.642,4.46,13.389-10.199,33.779c-14.655,20.39-4.456,38.87-40.146,73.92c-35.686,35.049-56.076,24.211-63.721,68.82
						C616.541,960.679,596.15,975.338,580.216,970.558L580.216,970.558z"/>
					<path id="_273839504" fill="#306841" d="M690.259,982.114c1.455-1.825,1.161-4.482-0.664-5.938
						c-1.826-1.456-4.482-1.157-5.942,0.661c-0.06,0.078-5.209,6.413-12.336,17.656h10.057
						C686.64,986.574,690.212,982.178,690.259,982.114L690.259,982.114z M576.857,994.494
						c23.545-87.507,73.526-182.861,73.704-183.203c1.079-2.066,0.276-4.623-1.794-5.709c-2.07-1.08-4.63-0.277-5.709,1.796
						c-0.182,0.341-51.304,97.876-74.93,187.116H576.857L576.857,994.494z M552.518,994.494c-1.352-6.506-2.734-13.268-4.155-20.306
						c-0.476-2.365-0.959-4.716-1.441-7.067c-0.022-0.12-0.043-0.241-0.074-0.361c-28.029-136.186-67.305-255.24-67.422-255.596
						c-0.725-2.223-3.118-3.444-5.345-2.72c-2.227,0.725-3.444,3.118-2.72,5.341c0.106,0.334,35.035,106.221,62.414,232.101
						c-54.275-74.268-162.982-114.261-163.323-114.388c-2.194-0.817-4.63,0.298-5.447,2.485c-0.813,2.194,0.298,4.631,2.489,5.447
						c0.359,0.135,125.064,46.022,171.238,129.878c0.448,2.181,0.892,4.354,1.332,6.535c1.3,6.441,2.568,12.656,3.815,18.65H552.518
						z"/>
				</g>
				<g>
					<path id="_273839720" fill="#FDAF31" d="M913.802,900.594c0,0,82.4,32.365,133.984,65.64
						c18.064,11.654,31.232,20.695,42.965,28.252H855.752C862.2,941.575,884.604,891.802,913.802,900.594z"/>
					<path id="_273839912" fill="#FCEEA9" d="M925.46,905.332c24.546,10.171,82.578,35.27,122.326,60.909
						c18.064,11.648,31.232,20.688,42.965,28.253H894.129C898.407,956.51,914.735,923.521,925.46,905.332z"/>
					<path id="_273840104" fill="#FDAF31" d="M1056.813,991.994c0,0,7.844-4.148,13.345,2.5h-17.888
						C1053.767,993.626,1055.278,992.789,1056.813,991.994z"/>
					<path id="_273840488" fill="#FDAF31" d="M942.076,931.553c0,0,31.868,13.374,50.948,24.993
						c19.084,11.611,25.139,14.48,35.838,19.467c8.799,4.091,11.146,7.926-1.285,18.487H910.73
						c0.152-6.825,0.841-13.615,2.286-19.943C918.972,948.485,926.61,928.726,942.076,931.553L942.076,931.553z"/>
				</g>
				<g>
					<path id="_273840728" fill="#549266" d="M1154.458,672.087c0,0,25.672,68.195,76.687,59.844
						c51.019-8.353,50.058-15.646,86.296-10.135c36.236,5.511,39.197-5.618,56.854-19.29c17.656-13.672-14.066-6.399-26.687-24.517
						c-12.62-18.118-48.761-89.311-106.42-42.01S1179.256,654.679,1154.458,672.087z M1063.986,665.781
						c0,0,45.628,52.507,26.665,97.017c-18.967,44.51-53.928,77.102-107.979,49.957c-54.053-27.152-78.346-10.781-100.948-21.939
						c-22.602-11.165,7.642,0.717,26.463-14.042c18.825-14.758,62.869-18.536,82.419-59.062
						C1010.155,677.194,1018.446,667.023,1063.986,665.781L1063.986,665.781z M1134.944,725.078c0,0,19.553,20.979,44.375,30.596
						c24.819,9.617,84.247,51.967,66.104,106.335c-18.14,54.374-5.955,69.503-4.13,109.964c0.373,8.225,0.028,15.816-0.803,22.521
						h-29.18c-7.535-9.368-20.767-21.371-46.857-45.327C1117.196,905.757,1034.335,869.572,1134.944,725.078z"/>
					<path id="_273840920" fill="#306841" d="M1066.306,604.68c-0.075-0.107-0.156-0.199-0.238-0.291
						c-13.722-16.35-29.148-32.429-46.495-47.819c-1.755-1.549-4.432-1.393-5.983,0.362c-1.553,1.754-1.389,4.432,0.361,5.979
						c16.74,14.852,31.648,30.356,44.943,46.115c1.577,12.081,13.111,115.709-50.22,153.827c-2.003,1.207-2.65,3.814-1.445,5.81
						c1.204,2.003,3.807,2.656,5.81,1.449c56.953-34.283,57.713-116.193,55.497-149.247c3.903,4.958,7.649,9.929,11.253,14.908
						c0.111,0.177,0.234,0.354,0.373,0.519c75.846,105.177,85.859,212.477,85.898,212.86c0.234,2.33,2.315,4.034,4.648,3.8
						c2.333-0.234,4.031-2.315,3.8-4.652c-0.039-0.369-9.151-98.046-75.288-199.195c36.538,22.393,120.576,64.942,185.66,29.935
						c2.061-1.115,2.83-3.685,1.719-5.746c-1.111-2.06-3.682-2.826-5.745-1.719c-77.581,41.733-185.819-34.801-194.389-41.008
						C1080.197,621.903,1073.489,613.252,1066.306,604.68L1066.306,604.68z"/>
				</g>
			</g>
			<g>
				<g>
					<path id="_440888072" fill="#FE8100" d="M-644.281-565.5c-0.989,4.117-2.082,8.242-3.301,12.374
						c-19.872,67.386-117.529,114.951-200.667,108.955V-565.5H-644.281z"/>
					<path id="_444667432" fill="#D9720B" d="M-747.003-557.748c2.641-0.684,5.334,0.905,6.016,3.548
						c0.682,2.64-0.907,5.333-3.547,6.015c-2.642,0.683-5.336-0.907-6.017-3.547C-751.234-554.375-749.645-557.068-747.003-557.748z
						 M-848.249-565.5h3.528c-0.575,0.401-1.229,0.706-1.948,0.893c-0.529,0.135-1.06,0.199-1.581,0.192V-565.5z M-814.9-563.919
						c1.701-0.438,3.44,0.584,3.88,2.288c0.438,1.703-0.584,3.439-2.289,3.88c-1.702,0.438-3.44-0.584-3.879-2.288
						C-817.629-561.743-816.605-563.481-814.9-563.919z M-829.532-495.649c2.047-0.527,4.131,0.701,4.659,2.744
						c0.527,2.048-0.701,4.132-2.747,4.659c-2.046,0.529-4.13-0.703-4.659-2.746C-832.807-493.038-831.576-495.122-829.532-495.649z
						 M-810.248-521.028c2.299-0.593,4.645,0.791,5.238,3.092c0.595,2.301-0.789,4.646-3.089,5.237
						c-2.301,0.596-4.647-0.788-5.24-3.089C-813.933-518.087-812.549-520.432-810.248-521.028z M-799.137-543.639
						c1.191-0.308,2.408,0.412,2.717,1.604c0.307,1.193-0.41,2.409-1.604,2.718c-1.191,0.306-2.408-0.411-2.715-1.602
						C-801.047-542.114-800.33-543.331-799.137-543.639z M-718.316-545.408c0.511-0.131,1.029,0.176,1.161,0.685
						c0.133,0.512-0.174,1.031-0.686,1.163c-0.511,0.133-1.031-0.174-1.163-0.685C-719.135-544.754-718.828-545.275-718.316-545.408
						z M-712.038-512.148c2.386-0.616,3.821-3.047,3.205-5.434c-0.616-2.386-3.049-3.82-5.434-3.204
						c-2.386,0.616-3.821,3.048-3.205,5.435C-716.857-512.966-714.425-511.532-712.038-512.148z M-743.089-489.657
						c1.705-0.44,3.443,0.586,3.881,2.288c0.44,1.705-0.584,3.441-2.289,3.882c-1.703,0.44-3.441-0.586-3.881-2.289
						C-745.816-487.48-744.792-489.218-743.089-489.657z M-797.267-480.284c2.214-0.57,4.473,0.762,5.044,2.976
						c0.572,2.216-0.762,4.475-2.976,5.045c-2.214,0.571-4.473-0.76-5.045-2.975C-800.812-477.452-799.481-479.712-797.267-480.284z
						 M-785.645-506.647c2.214-0.57,4.475,0.762,5.045,2.976c0.573,2.216-0.76,4.475-2.975,5.046
						c-2.214,0.572-4.473-0.762-5.044-2.976C-789.19-503.815-787.858-506.076-785.645-506.647z M-774.501-535.518
						c3.152-0.812,6.366,1.085,7.179,4.236c0.813,3.152-1.081,6.364-4.233,7.178c-3.153,0.812-6.367-1.082-7.18-4.233
						C-779.549-531.489-777.652-534.703-774.501-535.518z M-835.71-536.174c1.534-0.397,3.097,0.527,3.493,2.06
						c0.394,1.533-0.527,3.097-2.059,3.493c-1.534,0.394-3.097-0.527-3.493-2.061C-838.165-534.214-837.244-535.779-835.71-536.174z
						 M-848.249-505.132c1.211,1.105,2.126,2.565,2.566,4.271c0.836,3.244-0.257,6.536-2.566,8.652V-505.132z"/>
				</g>
				<g>
					<path id="_444667744" fill="#FE8100" d="M1491.751-565.5v121.329c-32.869-2.37-63.469-13.102-86.094-34.302
						c-23.97-22.458-42.599-53.233-52.755-87.027H1491.751z"/>
					<path id="_440887280" fill="#D9720B" d="M1409.563-553.195c2.302-0.594,4.646,0.79,5.242,3.091
						c0.593,2.301-0.789,4.647-3.09,5.239c-2.301,0.594-4.648-0.79-5.241-3.089C1405.882-550.255,1407.263-552.6,1409.563-553.195z
						 M1488.356-565.5h3.388v1.085C1490.516-564.427,1489.337-564.818,1488.356-565.5z M1491.744-492.209v-12.924
						c-2.112-1.932-5.128-2.791-8.107-2.023c-4.684,1.209-7.503,5.987-6.296,10.675c1.207,4.684,5.987,7.501,10.675,6.292
						C1489.457-490.559,1490.722-491.269,1491.744-492.209z M1472.366-546.367c3.067-0.79,6.196,1.053,6.984,4.119
						c0.792,3.068-1.051,6.195-4.119,6.987c-3.064,0.79-6.193-1.055-6.985-4.121S1469.301-545.575,1472.366-546.367z
						 M1457.511-477.052c1.961-0.504,3.14-2.504,2.635-4.462c-0.508-1.96-2.506-3.14-4.467-2.633
						c-1.96,0.506-3.135,2.503-2.631,4.464C1453.556-477.723,1455.552-476.544,1457.511-477.052z M1436.026-548.835
						c1.62-0.419,3.268,0.556,3.687,2.173c0.415,1.62-0.554,3.269-2.173,3.686c-1.619,0.419-3.271-0.554-3.689-2.173
						C1433.435-546.766,1434.407-548.418,1436.026-548.835z M1381.375-550.857c2.216-0.571,4.475,0.762,5.046,2.977
						c0.572,2.214-0.76,4.473-2.976,5.045c-2.216,0.571-4.474-0.762-5.046-2.975
						C1377.827-548.027,1379.159-550.285,1381.375-550.857z M1453.992-534.056c2.638-0.683,5.333,0.907,6.016,3.549
						c0.679,2.641-0.909,5.334-3.548,6.016c-2.643,0.681-5.334-0.909-6.016-3.549
						C1449.759-530.681,1451.351-533.375,1453.992-534.056z M1438.111-498.04c2.558-0.66,5.163,0.877,5.82,3.433
						c0.661,2.557-0.877,5.163-3.434,5.822c-2.558,0.66-5.16-0.878-5.82-3.435C1434.017-494.772,1435.555-497.38,1438.111-498.04z
						 M1409.94-523.676c2.472-0.638,4.989,0.847,5.629,3.318c0.635,2.472-0.85,4.989-3.32,5.627
						c-2.473,0.637-4.99-0.848-5.625-3.319C1405.984-520.521,1407.469-523.04,1409.94-523.676z"/>
				</g>
				<g>
					<path id="_440890016" fill="#549266" d="M-453.346-444.513c0,0,2.55,26.285,31.864,75.353
						c29.312,49.066-24.854,57.349-36.325,122.986c-11.47,65.635-7.01,52.253-27.4,9.558c-20.391-42.693-74.556-42.056-59.9-105.78
						C-530.45-406.123-510.058-434.797-453.346-444.513z M-605.143-565.5h105.352c13.805,4.419,24.73,9.868,29.56,15.361
						c18.482,21.03,28.04,28.04,28.04,28.04c-41.422,67.546-79.976,36.003-108.331,65.315
						c-28.355,29.314-48.112,39.828-90.808,38.873c-42.693-0.957-50.978,11.787-47.153,0.317c3.822-11.47,7.008-34.41,31.86-62.77
						c24.853-28.355,25.808-39.826,43.015-75.511C-611.76-559.708-608.86-562.891-605.143-565.5z M-469.317-565.5h110.81
						c-5.998,1.971-12.424,3.718-19.323,5.167C-414.14-552.712-444.493-557.075-469.317-565.5z M-238.564-565.5h13.417
						c6.822,7.528,19.634,18.35,43.267,30.337c44.607,22.62,65.955,46.838,68.824,81.565c2.867,34.73-12.108,43.015-12.427,63.723
						c-0.32,20.712,9.558,30.588-12.743,3.188c-22.305-27.4-59.265-29.95-94.314-76.47
						C-265.136-506.421-263.554-520.204-238.564-565.5z M-331.631-493.743c0,0,13.702,20.071,54.485,30.586
						c40.783,10.517,72.965,27.083,81.885,95.268c8.92,68.186,4.78,71.053,7.328,83.798c2.548,12.745,11.47,21.984-23.26-5.735
						c-34.73-27.72-50.662-6.691-101.003-53.846C-362.536-390.83-374.644-424.602-331.631-493.743z"/>
					<path id="_440890832" fill="#306841" d="M-294.385-565.5c-5.332,3.618-10.909,6.971-16.742,10.007
						c-26.34,13.713-52.134,27.737-75.58,43.592c-17.726-6.135-146.511-47.791-204.694,15.293c-1.586,1.722-1.472,4.406,0.25,5.99
						c1.72,1.586,4.405,1.474,5.991-0.248c50.312-54.549,159.589-24.642,189.765-14.995c-14.911,10.67-28.729,22.196-40.946,35.009
						c-33.545,35.172-54.875,79.772-53.576,142.242c0.046,2.335,1.978,4.193,4.314,4.149c2.337-0.047,4.194-1.98,4.149-4.314
						c-1.246-59.878,19.158-102.585,51.252-136.231c26.818-28.12,61.926-50.087,99.454-70.471
						c-7.233,26.625-18.711,100.04,51.353,159.04c1.787,1.504,4.455,1.273,5.959-0.513c1.502-1.786,1.27-4.455-0.515-5.957
						c-76.392-64.33-50.422-146.455-46.154-158.282c4.275-2.27,8.576-4.524,12.892-6.768c9.757-5.08,18.819-11.003,27.234-17.542
						H-294.385z M-234.284-565.5c6.558,23.398,19.751,53.852,45.234,91.342c1.311,1.934,3.942,2.439,5.875,1.129
						c1.936-1.31,2.44-3.941,1.13-5.875c-24.285-35.727-37.097-64.52-43.624-86.596H-234.284z"/>
				</g>
				<g>
					<path id="_440888168" fill="#FCEEA9" d="M221.389-565.5c-5.46,15.682-17.109,25.729-27.695,30.582
						c-36.577,16.765-92.308,1.357-145.868-30.582H221.389z"/>
					<path id="_273537256" fill="#FFBF3E" d="M-116.334-565.5H47.823c53.558,31.938,109.292,47.347,145.868,30.582
						c7.596-3.482,15.739-9.642,21.754-18.637l0.003,0.006c0,0-38.327,69.61-122.443,94.461
						C24.857-438.953-67.96-487.417-116.334-565.5L-116.334-565.5z"/>
					<path id="_273538000" fill="#FFBF3E" d="M93.733-565.5h110.632c-0.689,1.155-1.54,2.27-2.546,3.341
						c-10.195,10.833-48.112,21.664-71.371,14.336C115.415-552.559,103.178-557.563,93.733-565.5z"/>
					<path id="_273536224" fill="#E3A019" d="M-40.007-555.152c2.992,0,5.417,2.426,5.417,5.417c0,2.992-2.426,5.417-5.417,5.417
						c-2.992,0-5.417-2.425-5.417-5.417C-45.425-552.726-42.999-555.152-40.007-555.152z M58.446-472.631
						c1.584,0,2.866,1.284,2.866,2.869c0,1.582-1.282,2.866-2.866,2.866c-1.583,0-2.868-1.284-2.868-2.866
						C55.578-471.347,56.862-472.631,58.446-472.631z M18.776-498.756c1.497,0,2.71,1.213,2.71,2.707
						c0,1.497-1.212,2.708-2.71,2.708c-1.495,0-2.708-1.211-2.708-2.708C16.068-497.543,17.281-498.756,18.776-498.756z
						 M-75.217-560.25c1.673,0,3.027,1.354,3.027,3.027c0,1.671-1.354,3.025-3.027,3.025c-1.671,0-3.025-1.354-3.025-3.025
						C-78.242-558.895-76.888-560.25-75.217-560.25z M-22.165-546.867c1.406,0,2.546,1.14,2.546,2.548
						c0,1.406-1.14,2.548-2.546,2.548c-1.41,0-2.55-1.142-2.55-2.548C-24.714-545.727-23.574-546.867-22.165-546.867z
						 M-45.106-528.069c1.935,0,3.505,1.569,3.505,3.505c0,1.934-1.57,3.505-3.505,3.505c-1.934,0-3.503-1.571-3.503-3.505
						C-48.61-526.5-47.04-528.069-45.106-528.069z M130.454-511.821c1.406,0,2.548,1.142,2.548,2.55
						c0,1.407-1.142,2.549-2.548,2.549c-1.408,0-2.552-1.142-2.552-2.549C127.902-510.679,129.046-511.821,130.454-511.821z
						 M86.642-523.927c2.552,0,4.62,2.067,4.62,4.62c0,2.55-2.068,4.618-4.62,4.618c-2.551,0-4.62-2.068-4.62-4.618
						C82.021-521.86,84.09-523.927,86.642-523.927z M30.246-548.461c0.97,0,1.753,0.784,1.753,1.752
						c0,0.968-0.783,1.753-1.753,1.753c-0.967,0-1.75-0.785-1.75-1.753C28.496-547.677,29.279-548.461,30.246-548.461z
						 M104.326-495.252c1.408,0,2.55,1.142,2.55,2.55c0,1.408-1.142,2.55-2.55,2.55c-1.408,0-2.549-1.142-2.549-2.55
						C101.777-494.11,102.918-495.252,104.326-495.252z M72.466-486.649c2.111,0,3.823,1.71,3.823,3.822
						c0,2.111-1.711,3.825-3.823,3.825c-2.113,0-3.825-1.714-3.825-3.825C68.641-484.939,70.353-486.649,72.466-486.649z
						 M38.052-486.967c1.935,0,3.505,1.57,3.505,3.504c0,1.935-1.569,3.505-3.505,3.505c-1.934,0-3.503-1.57-3.503-3.505
						C34.549-485.397,36.118-486.967,38.052-486.967z M46.816-520.742c2.021,0,3.663,1.641,3.663,3.663
						c0,2.024-1.642,3.663-3.663,3.663c-2.024,0-3.665-1.639-3.665-3.663C43.151-519.101,44.792-520.742,46.816-520.742z
						 M-8.942-516.282c2.376,0,4.303,1.927,4.303,4.303s-1.927,4.302-4.303,4.302c-2.375,0-4.302-1.926-4.302-4.302
						S-11.317-516.282-8.942-516.282z M8.105-532.532c2.99,0,5.415,2.426,5.415,5.418c0,2.991-2.425,5.417-5.415,5.417
						c-2.992,0-5.417-2.426-5.417-5.417C2.688-530.106,5.113-532.532,8.105-532.532z M-9.581-495.889
						c0.792,0,1.434,0.642,1.434,1.433c0,0.792-0.642,1.435-1.434,1.435c-0.79,0-1.433-0.643-1.433-1.435
						C-11.014-495.247-10.371-495.889-9.581-495.889z"/>
				</g>
				<g>
					<path id="_273537136" fill="#549266" d="M639.161-478.238c0,0-23.316-50.282-6.85-87.262h133.167
						C734.89-532.009,726.87-486.825,639.161-478.238L639.161-478.238z M271.709-565.5h67.698
						c34.314,12.802,58.58,0.598,107.635,10.793c56.711,11.788,68.963,65.282,67.865,67.867
						c-11.789,54.164-59.584,76.148-114.066,69.776c-54.485-6.371-71.69-38.551-102.276-93.036
						C285.874-532.706,277.408-551.139,271.709-565.5z"/>
					<path id="_441269064" fill="#306841" d="M671.313-565.5c-20.089,31.667-55.902,102.297-37.934,181.729
						c-18.096-18.84-31.324-36.253-41.785-55.548c-10.676-19.688-18.541-41.443-25.817-68.752
						c1.712-17.922,5.71-37.473,11.079-57.43h-8.729c-3.182,12.01-5.866,23.87-7.858,35.322
						c-2.554-10.893-5.103-22.613-7.752-35.322h-8.644c9.869,47.507,18.346,81.524,30.582,110.162
						c-66.824-55.436-194.437-68.811-194.84-68.855c-2.325-0.245-4.417,1.441-4.662,3.768c-0.248,2.326,1.439,4.416,3.764,4.662
						c0.438,0.048,151.321,15.872,207.188,83.711c12.706,22.546,29.18,42.683,52.678,65.525l0.039,0.039l0.031,0.035l0.074,0.071
						c12.877,12.511,27.863,25.834,45.483,40.812c1.786,1.511,4.464,1.289,5.977-0.497c1.509-1.786,1.289-4.464-0.497-5.975
						c-17.162-14.586-31.769-27.562-44.328-39.725c-26.523-86.253,16.459-164.339,36.008-193.734H671.313L671.313-565.5z"/>
				</g>
				<g>
					<path id="_441269952" fill="#FDAF31" d="M1090.759-565.5c21.768,14.034,38.593,22.978,72.577,34.055
						c52.294,17.042,61.925,19.29,73.062,29.558c11.136,10.269,7.883,47.528-20.334,90.978
						c-28.214,43.453-126.896,110.72-210.908,63.773c-84.017-46.949-139.24-93.716-149.227-158.973
						c-2.776-18.15-2.656-39.004-0.174-59.391H1090.759z"/>
					<path id="_441269256" fill="#FCEEA9" d="M1090.759-565.5c21.768,14.034,38.593,22.978,72.577,34.055
						c29.609,9.648,45.54,14.555,55.81,18.86c-4.439,23.466-17.309,60.643-54.023,98.352
						c-60.635,62.276-185.727,38.203-248.309-54.369c-21.712-32.118-26.144-66.146-22.682-96.897H1090.759z"/>
					<path id="_441267072" fill="#FDAF31" d="M1070.151-565.5c1.179,1.424,2.251,3.343,3.113,5.905
						c4.895,14.524,5.373,72.551,5.195,106.755c-0.181,34.203,6.701,43.649,2.846,54.952c-3.861,11.302-54.822,8.69-78.346-7.461
						c-23.525-16.15-55.241-40.639-62.744-59.08c-7.5-18.44-4.223-13.08,29.567-35.147c32.088-20.959,54.219-49.503,82.481-65.925
						H1070.151z"/>
					<path id="_273261032" fill="#FDAF31" d="M1101.567-546.313c0,0,51.549,18.449,71.588,31.658
						c20.039,13.208,27.347,17.105,22.272,31.368c-5.075,14.266-26.026,41.371-47.106,62.63
						c-21.079,21.259-42.914,22.257-45.504,12.212c-2.588-10.046-9.399-49.423-12.443-80.29
						C1087.331-519.602,1082.956-559.484,1101.567-546.313z"/>
					<path id="_273263360" fill="#FDAF31" d="M1027.569-565.5c-2.691,2.283-6.068,4.883-10.23,7.867
						c-23.389,16.777-42.859,30.953-63.268,42.821c-20.408,11.869-30.266,12.752-35.234,1.076c-3.76-8.843-8.579-30.466-8.11-51.765
						H1027.569z"/>
				</g>
				<path id="_273263528" fill="#549266" d="M1211.315-565.5h29.18c-3.253,26.253-13.96,38.857-18.274,22.617
					C1219.796-552.018,1217.431-557.895,1211.315-565.5z"/>
			</g>
			<g>
				<path id="_273841256" fill="#FE8100" d="M213.183-432.395c119.801,10.833,149.754,80.93,165.046,133.183
					c15.294,52.255,10.294,166.503-92.667,200.503c-102.965,34-196.636,16.797-243.156-64.771
					C-31.465-293.003,69.742-445.366,213.183-432.395z"/>
				<path id="_273839888" fill="#FFB940" d="M211.205-403.708c100.127,9.056,125.16,67.64,137.943,111.314
					c12.781,43.672,8.605,139.161-77.453,167.577C185.64-96.401,107.351-110.78,68.471-178.952
					C6.731-287.206,91.318-414.549,211.205-403.708z"/>
				<path id="_273839480" fill="#FFE252" d="M183.24-267.669c0,0-38.871-53.208-46.836-79.973
					c-7.967-26.765,11.786-45.562,41.101-44.29c29.313,1.275,56.078,4.145,64.043,7.969c7.965,3.823,2.868,22.621-3.505,46.198
					c-6.373,23.578-17.527,62.131-23.26,71.689C209.049-256.517,192.797-247.915,183.24-267.669z M177.504-261.934
					c0,0-31.861-46.518-48.111-65.953c-16.25-19.438-32.817-20.075-48.11,9.875c-15.295,29.95-18.483,51.298-14.977,62.45
					c3.505,11.152,35.048,5.1,66.59,4.143C164.442-252.375,189.294-250.782,177.504-261.934z M181.329-237.398
					c0,0-19.755,54.165-35.048,71.37c-15.293,17.205-26.447,19.436-40.465,7.328c-14.019-12.106-28.997-33.773-35.368-51.298
					c-6.371-17.523,8.604-28.355,47.475-32.181C156.794-246.001,187.702-248.868,181.329-237.398z M206.499-227.521
					c0,0,36.323,37.598,49.067,54.166c12.747,16.567,12.108,28.357,4.143,35.365c-7.965,7.012-50.66,14.657-74.556,7.967
					c-23.897-6.692-28.995-5.735-23.58-19.436c5.417-13.701,15.612-49.069,22.623-60.539
					C191.207-221.466,196.941-234.531,206.499-227.521L206.499-227.521z M230.077-239.95c0,0,47.793-19.115,76.15-21.027
					c28.357-1.913,39.508,8.922,36.959,26.127c-2.551,17.205-7.646,39.189-20.072,53.208c-12.427,14.02-31.225,14.02-43.969,6.373
					c-12.747-7.647-47.793-35.048-55.121-41.738C216.695-223.7,215.42-233.257,230.077-239.95L230.077-239.95z M221.475-262.89
					c0,0,14.972-47.475,24.851-72.327c9.879-24.851,13.065-36.641,21.35-37.915c8.283-1.274,20.074,3.824,34.41,23.579
					c14.338,19.753,24.851,36.003,28.355,50.023c3.506,14.02,2.551,17.523-23.258,26.763c-25.808,9.24-55.442,15.293-66.91,20.072
					C228.802-247.915,216.057-252.057,221.475-262.89z"/>
			</g>
			<g>
				<g>
					<path id="_273843560" fill="#549266" d="M1233.116,109.297c0,0,13.497-66.787-22.994-96.058
						c-36.491-29.271-30.469-28.744-73.952-54.375c-43.479-25.632-66.69-7.626-106.676,3.257
						c-39.985,10.881-32.795,2.606-6.68,18.633c26.114,16.027,21.956,45.198,62.663,70.183
						C1126.188,75.92,1142.417,121.834,1233.116,109.297L1233.116,109.297z M1299.618-172.645c0,0,71.661-48.274,89.768-112.235
						c18.107-63.959-12.744-69.678-27.713-118.517c-14.964-48.837-8.348-45.832-14.08-75.257
						c-5.73-29.425-7.869-16.463-14.925,8.814c-7.056,25.277-57.088,51.669-71.719,138.384
						C1246.325-244.74,1245.544-228.83,1299.618-172.645z M1351.958,72.009c-1.67-2.259-2.209-57.134,50.201-81.802
						c38.996-18.351,64.01-16.315,89.585-28.394v146.143c-3.903,1.918-8.089,3.702-12.614,5.36
						C1427.628,132.195,1376.03,121.94,1351.958,72.009z M1340.626-99.901c0,0,6.402-29.378,7.372-56.805
						c0.97-27.424,31.424-50.768,78.941-80.815c35.284-22.31,49.876-24.678,64.805-35.202v110.608
						c-0.739,2.871-1.521,5.835-2.358,8.917C1474.06-96.783,1420.839-68.647,1340.626-99.901z M1264.558-12.566
						c0,0,32.08-63.047,6.598-95.607c-25.482-32.558-30.912-30.604-60.263-62.894c-29.354-32.286-48.782-36.811-84.847-31.452
						c-36.068,5.355-46.104,4.481-68.956,2.088c-22.852-2.394-1.222,14.054,17.776,30.473c19.002,16.418,13.385,36.765,56.25,62.544
						c42.866,25.779,60.174,10.497,77.994,52.099C1226.93-13.716,1250.175-4.209,1264.558-12.566z"/>
					<path id="_273844616" fill="#306841" d="M1160.232,24.29c-1.843-1.434-2.173-4.09-0.739-5.931
						c1.436-1.842,4.092-2.172,5.931-0.737c0.28,0.219,93.924,71.868,95.302,182.203c13.214-22.536,22.023-42.55,27.709-63.75
						c5.796-21.63,8.385-44.622,9.105-72.872c-31.435-91.701-138.156-213.929-138.465-214.283c-1.535-1.764-1.35-4.436,0.415-5.97
						c1.761-1.534,4.435-1.348,5.97,0.413c0.287,0.336,93.486,107.075,132.286,197.058c-0.078-16.912-0.604-35.659-1.364-56.871
						c-0.084-2.406-0.166-4.809-0.24-7.206c-0.012-0.122-0.015-0.244-0.015-0.369c-4.438-138.969,6.044-263.899,6.072-264.271
						c0.188-2.333,2.229-4.074,4.567-3.89c2.332,0.186,4.076,2.231,3.888,4.564c-0.024,0.347-9.351,111.454-6.673,240.249
						c35.498-84.859,131.91-149.062,132.213-149.264c1.938-1.304,4.57-0.789,5.873,1.152c1.303,1.94,0.785,4.571-1.154,5.875
						c-0.319,0.215-110.916,73.872-136.303,166.175c0.074,2.219,0.149,4.441,0.23,6.667c2.096,58.605,2.426,98.701-3.465,133.274
						c52.08-69.469,173.074-112.182,173.457-112.318c2.206-0.781,4.631,0.373,5.412,2.578s-0.373,4.631-2.578,5.412
						c-0.412,0.148-143.469,50.66-182.009,129.639c-7.109,24.885-18.444,48.302-35.977,75.99l-0.028,0.043l-0.025,0.042
						l-0.057,0.086c-9.609,15.166-21.079,31.611-34.733,50.28c-1.385,1.886-4.038,2.29-5.923,0.905
						c-1.887-1.385-2.295-4.041-0.91-5.924c13.293-18.182,24.479-34.2,33.864-48.952c7.259-114.313-91.356-189.776-91.64-189.998
						H1160.232z"/>
				</g>
				<g>
					<path id="_273844448" fill="#FE8100" d="M1446.002,205.409c16.985,1.535,32.163,4.267,45.749,7.965V546.79
						c-92.272,22.819-174.055,2.011-216.525-72.464C1201.354,344.802,1302.562,192.44,1446.002,205.409z"/>
					<path id="_273844808" fill="#FFB940" d="M1444.024,234.096c18.288,1.651,34.062,4.968,47.723,9.535v273.272
						c-80.969,22.933-153.512,6.732-190.457-58.054C1239.55,350.597,1324.138,223.254,1444.024,234.096z"/>
					<path id="_273845000" fill="#FFE252" d="M1416.048,370.136c0,0-38.87-53.21-46.836-79.975
						c-7.965-26.766,11.787-45.564,41.102-44.286c29.314,1.271,56.079,4.141,64.045,7.965c7.965,3.825,2.865,22.624-3.51,46.196
						c-6.37,23.58-17.521,62.131-23.256,71.69C1441.858,381.287,1425.608,389.891,1416.048,370.136L1416.048,370.136z
						 M1410.313,375.871c0,0-31.861-46.516-48.111-65.955c-16.25-19.438-32.815-20.07-48.11,9.88
						c-15.294,29.95-18.483,51.292-14.976,62.45c3.506,11.15,35.047,5.096,66.592,4.141
						C1397.249,385.427,1422.103,387.021,1410.313,375.871z M1414.138,400.406c0,0-19.755,54.169-35.046,71.37
						c-15.295,17.209-26.448,19.435-40.466,7.329c-14.02-12.109-28.998-33.774-35.369-51.299
						c-6.37-17.522,8.605-28.355,47.476-32.18C1389.603,391.805,1420.513,388.935,1414.138,400.406L1414.138,400.406z
						 M1439.308,410.285c0,0,36.321,37.596,49.07,54.162c1.25,1.626,2.368,3.203,3.366,4.736v31.236
						c-9.631,6.832-50.571,13.863-73.782,7.361c-23.895-6.693-28.994-5.735-23.579-19.436c5.419-13.7,15.614-49.069,22.624-60.539
						C1424.017,416.335,1429.752,403.275,1439.308,410.285L1439.308,410.285z M1462.888,397.856c0,0,12.682-5.071,28.856-10.256
						v60.803c-14.258-10.625-30.234-23.338-34.911-27.606C1449.503,414.106,1448.229,404.546,1462.888,397.856z M1454.283,374.915
						c0,0,14.976-47.478,24.854-72.329c5.66-14.239,9.123-24.19,12.606-30.333v107.045c-7.919,2.166-14.489,4.076-18.661,5.809
						C1461.612,389.887,1448.868,385.747,1454.283,374.915z"/>
				</g>
			</g>
			<g>
				<path id="_273840416" fill="#549266" d="M-848.249,107.957V-38.186c8.802-4.156,17.671-9.98,27.196-18.887
					c37.212-34.788,54.214-49.997,54.06-42.425c-0.154,7.573,1.005,38.418-16.059,98.525
					C-798.618,53.859-807.681,88.047-848.249,107.957z M-848.249-162.115v-110.608c5.18-3.65,10.398-8.277,16.536-15.062
					c23.835-26.346,23.878-15.217,9.134,21.729C-836.522-231.127-835.456-211.79-848.249-162.115z"/>
				<g>
					<path id="_273843728" fill="#FE8100" d="M-848.249,213.373c82.25,22.388,106.174,80.371,119.299,125.218
						c15.293,52.255,10.295,166.505-92.669,200.507c-8.956,2.954-17.839,5.515-26.63,7.691V213.373z"/>
					<path id="_273843920" fill="#FFB940" d="M-848.249,243.631c61.129,20.429,79.771,66.079,90.218,101.778
						c12.783,43.672,8.604,139.161-77.452,167.577c-4.275,1.409-8.532,2.717-12.767,3.917V243.631z"/>
					<path id="_273844112" fill="#FFE252" d="M-848.249,500.426v-31.235c9.18,14.098,7.958,24.304,0.774,30.628
						C-847.704,500.021-847.965,500.22-848.249,500.426z M-848.249,448.41v-60.803c15.224-4.879,33.542-9.85,47.292-10.773
						c28.357-1.914,39.51,8.92,36.96,26.122c-2.549,17.208-7.647,39.19-20.075,53.21c-12.425,14.02-31.223,14.02-43.97,6.374
						C-832.648,459.773-840.174,454.425-848.249,448.41z M-848.249,379.301V272.256c2.596-4.573,5.203-7.034,8.739-7.581
						c8.283-1.272,20.073,3.828,34.411,23.579c14.336,19.751,24.852,36.005,28.356,50.02c3.505,14.021,2.548,17.529-23.26,26.769
						C-816.424,370.924-834.394,375.512-848.249,379.301z"/>
				</g>
			</g>
			<g>
				<path id="_273845528" fill="#549266" d="M-578.47,101.352c0,0,68.933,23.62,94.971-21.039
					c26.037-44.658,19.799-48.562,47.122-72.996c27.321-24.435,20.629-33.802,21.328-56.122c0.698-22.322-13.894,6.771-35.898,4.97
					c-22.004-1.803-99.92-19.263-100.154,55.313C-551.334,86.057-576.108,71.141-578.47,101.352z M-640.938,167.101
					c0,0,69.542-1.758,91.789,41.205c22.25,42.967,25.123,90.673-30.224,115.068c-55.35,24.4-58.189,53.551-81.189,63.878
					c-22.999,10.319,5.419-5.434,6.023-29.347c0.602-23.913,25.734-60.28,6.932-101.157
					C-666.41,215.875-668.974,203.008-640.938,167.101z M-550.03,150.135c0,0,28.623-1.723,51.845-14.739
					c23.219-13.017,93.71-31.88,124.088,16.725c30.376,48.604,49.797,48.84,82.163,73.193c32.363,24.353,41.83,52.255,22.659,43.452
					c-19.17-8.808-25.605-7.528-89.168,1.278C-422.007,278.851-502.666,319.717-550.03,150.135z"/>
				<path id="_273843488" fill="#306841" d="M-686.575,126.411c-0.126-0.004-0.25-0.004-0.374,0.003
					c-21.344,0.169-43.565,1.829-66.478,5.407c-2.313,0.363-3.894,2.531-3.53,4.844c0.364,2.312,2.532,3.892,4.844,3.529
					c22.109-3.453,43.551-5.08,64.172-5.296c10.321,6.474,97.576,63.556,86.651,136.666c-0.348,2.309,1.248,4.468,3.559,4.811
					c2.312,0.345,4.468-1.246,4.814-3.561c9.824-65.743-52.858-118.482-79.758-137.818c6.309,0.146,12.528,0.422,18.661,0.816
					c0.21,0.03,0.424,0.046,0.641,0.044c129.391,8.474,218.514,69.071,218.833,69.284c1.946,1.304,4.584,0.779,5.888-1.166
					c1.303-1.948,0.781-4.585-1.167-5.888c-0.309-0.21-81.433-55.367-201.543-68.773c40.533-13.913,126.85-51.626,141.289-124.106
					c0.454-2.298-1.039-4.528-3.335-4.982c-2.297-0.455-4.529,1.038-4.984,3.334c-17.211,86.396-145.142,121.138-155.381,123.792
					C-664.448,126.669-675.389,126.332-686.575,126.411L-686.575,126.411z"/>
			</g>
			<g>
				<path id="_273844592" fill="#549266" d="M-520.935,606.264c0,0,2.55,26.285,31.862,75.354
					c29.315,49.062-24.853,57.351-36.322,122.982c-11.47,65.639-7.01,52.258-27.4,9.56c-20.393-42.691-74.558-42.053-59.9-105.78
					C-598.038,644.659-577.647,615.98-520.935,606.264L-520.935,606.264z M-300.129,474.51c0,0,6.055,18.48,50.66,41.104
					c44.607,22.624,65.955,46.836,68.823,81.565c2.868,34.729-12.108,43.018-12.425,63.722c-0.32,20.71,9.558,30.589-12.745,3.188
					c-22.303-27.4-59.265-29.95-94.312-76.47C-335.177,541.101-330.717,528.679-300.129,474.51z M-399.22,557.031
					c0,0,13.7,20.078,54.483,30.59c40.785,10.519,72.965,27.081,81.885,95.27c8.922,68.182,4.782,71.051,7.33,83.799
					c2.548,12.741,11.47,21.981-23.26-5.738c-34.73-27.721-50.662-6.69-101.003-53.85
					C-430.125,659.95-442.232,626.178-399.22,557.031z M-349.197,420.988c-0.774-2.844-33.137-8.604-62.45-28.998
					c-29.313-20.391-83.161-39.19-109.605-16.57c-26.445,22.625-27.401,25.175-67.228,41.421
					c-39.828,16.25-39.508,18.8-46.518,27.72c-7.01,8.924,7.01-7.961,34.412,7.969c27.398,15.931,77.741,54.162,155.164,37.916
					C-367.996,474.195-349.197,420.988-349.197,420.988z M-509.782,528.679c0,0-9.558-7.01-28.038-28.04
					c-18.479-21.029-126.171-41.42-143.378-5.731c-17.207,35.682-18.161,47.152-43.013,75.512
					c-24.852,28.352-28.04,51.299-31.863,62.77c-3.822,11.47,4.462-1.279,47.156-0.32c42.695,0.952,62.452-9.56,90.807-38.87
					C-589.755,564.68-551.202,596.228-509.782,528.679z"/>
				<path id="_273845816" fill="#306841" d="M-304.53,425.743c-0.293,0.316-0.542,0.683-0.73,1.091
					c-17.996,26.512-42.019,52.088-73.455,68.451c-26.34,13.714-52.134,27.737-75.581,43.594
					c-17.727-6.137-146.511-47.791-204.694,15.291c-1.586,1.726-1.474,4.41,0.25,5.994c1.721,1.584,4.405,1.47,5.991-0.249
					c50.312-54.552,159.589-24.645,189.765-15c-14.911,10.675-28.729,22.202-40.948,35.015
					c-33.544,35.17-54.875,79.765-53.576,142.236c0.047,2.336,1.98,4.197,4.315,4.148c2.338-0.043,4.196-1.975,4.149-4.312
					c-1.247-59.879,19.16-102.584,51.253-136.234c26.816-28.118,61.926-50.085,99.455-70.469
					c-7.234,26.627-18.71,100.042,51.353,159.041c1.786,1.505,4.455,1.271,5.957-0.512c1.504-1.783,1.272-4.453-0.513-5.959
					c-76.392-64.325-50.422-146.455-46.154-158.28c4.275-2.266,8.576-4.524,12.892-6.769c27.544-14.34,49.581-35.408,66.998-58.089
					c-0.368,22.45,6.69,66.462,51.164,131.888c1.311,1.933,3.942,2.443,5.876,1.13c1.935-1.307,2.438-3.942,1.129-5.874
					c-61.309-90.191-49.545-136.256-47.943-141.377c7.264-10.81,13.558-21.743,18.968-32.275l0.006-0.008l0.048-0.088l0.042-0.093
					c20.375-39.723,28.192-73.707,28.237-73.899c0.532-2.279-0.888-4.559-3.171-5.092c-2.282-0.533-4.563,0.888-5.094,3.168
					c-0.044,0.185-7.53,32.713-26.907,70.873c-11.104,6.065-112.045,58.607-218.117,24.829c-2.228-0.703-4.607,0.529-5.312,2.756
					c-0.703,2.227,0.529,4.605,2.756,5.313c93.043,29.623,182.091-5.028,213.717-19.915
					C-296.093,412.593-300.129,419.191-304.53,425.743z"/>
			</g>
			<g>
				<path id="_273845936" fill="#FDAF31" d="M-713.609-388.143c0,0,61.763,48.739,97.084,90.317
					c35.319,41.58,42.152,54.785,82.251,82.739c40.1,27.954,47.717,32.346,54.545,43.945c6.831,11.602-5.524,42.459-40.709,72.158
					c-35.183,29.704-136.437,61.532-195.823-0.024c-59.387-61.559-94.328-115.552-86.029-173.634
					C-793.991-330.725-744.884-408.907-713.609-388.143z"/>
				<path id="_273845168" fill="#FCEEA9" d="M-704.909-381.114c18.262,14.969,61.168,51.252,88.384,83.288
					c35.319,41.58,42.152,54.785,82.251,82.739c22.704,15.827,34.993,24.1,42.624,30.406c-9.816,18.819-30.33,47.133-71.266,69.762
					c-67.606,37.37-167.82-15.298-197.234-110.15C-782.963-298.625-729.894-358.108-704.909-381.114z"/>
				<path id="_273841232" fill="#FDAF31" d="M-615.48-273.598c0,0,11.41-2.225,11.836,11.389
					c0.426,13.616-14.097,63.1-23.051,92.151c-8.956,29.048-5.532,38.852-11.724,47.475c-6.19,8.622-48.869-6.713-64.725-26.505
					c-15.856-19.793-36.534-48.787-38.169-66.402c-1.635-17.617-0.225-12.215,34.196-22.293
					C-672.695-247.86-645.503-267.936-615.48-273.598z"/>
				<path id="_273840320" fill="#FDAF31" d="M-582.983-243.627c0,0,39.1,28.957,52.747,45.352
					c13.646,16.392,18.863,21.589,10.875,32.416c-7.99,10.827-32.786,28.496-56.188,41.153c-23.402,12.66-42.232,7.891-41.85-1.32
					c0.383-9.212,4.721-44.46,10.076-71.502C-601.968-224.57-595.426-259.621-582.983-243.627z"/>
				<path id="_273840344" fill="#FDAF31" d="M-697.525-354.535c0,0,23.665,19.577,36.907,34.369
					c13.242,14.79,17.656,18.787,25.477,25.779c7.821,6.994,7.63,11.2-16.582,19.456c-24.211,8.253-44.421,15.302-64.834,20.145
					c-20.416,4.845-29.029,3.059-30.25-8.152c-1.223-11.209,1.721-41.85,13.496-62.496
					C-721.538-346.08-709.952-360.92-697.525-354.535z"/>
			</g>
			<g>
				<path id="_274775864" fill="#549266" d="M768.493,60.631c0,0,7.379,36.61,18.8,60.749
					c11.421,24.141,15.273,79.261-50.958,109.445c-66.236,30.178-69.695,42.244-76.36,56.689c-6.665,14.446-9.915,0.423-2.511-20.24
					c7.404-20.661,18.242-44.375,19.158-81.502C677.538,148.647,642.677,97.224,768.493,60.631L768.493,60.631z M907.556,22.027
					c0,0,24.541,21.339,43.799,30.226c19.262,8.887,59.095,26.797,51.872,78.64c-7.224,51.845-8.012,59.996-5.859,79.964
					c2.148,19.97,1.409,26.184-7.558,10.389c-8.966-15.797-35.351-22.722-68.888-50.843
					C887.389,142.277,872.747,108.935,907.556,22.027z M782.755-94.986c0,0-77.166,23.347-146.885-3.572
					c-69.723-26.919-64.602-52.407-79.922-83.723c-15.323-31.314-24.969-31.254-49.918-67.012
					c-24.951-35.758-1.907-11.313,26.863-3.438c28.772,7.878,57.643-18.041,111.08,14.375
					c53.438,32.414,107.227,21.348,138.777,143.369H782.755z M755.858-2.103c0,0-5.27-0.872-33.207-32.674
					c-27.936-31.802-50.357-54.08-102.769-35.484c-52.414,18.596-72.354,11.734-102.506,14.668
					c-30.152,2.934-17.877,10.224,5.256,21.463c23.128,11.241,24.041,6.287,61.008,31.356
					C620.61,22.293,646.982,49.809,755.858-2.103z M711.001,54.364c0,0-10.06,3.982-55.164-12.55
					c-45.102-16.53-108.443-36.941-138.752,3.976c-30.306,40.918-45.264,55.88-80.125,66.55
					c-34.861,10.671,2.358,9.966,23.551,21.155c21.19,11.189,16.268,31.183,69.194,36.967
					c52.933,5.783,85.523-30.309,103.618-55.038C651.417,90.691,659.872,95.942,711.001,54.364L711.001,54.364z"/>
				<path id="_273625152" fill="#306841" d="M792.985,18.311c-0.439,0.139-0.863,0.346-1.242,0.627
					c-45.572,23.188-103.342,41.151-176.566,48.584c-2.326,0.241-4.016,2.324-3.771,4.65c0.242,2.324,2.323,4.017,4.648,3.773
					c66.094-6.708,119.855-21.9,163.602-41.792c-17.866,24.803-50.842,79.204-55.021,147.599c-0.139,2.332,1.644,4.334,3.977,4.471
					c2.33,0.137,4.333-1.646,4.471-3.977c5.249-85.92,57.422-149.039,63.715-156.363c43.029-22.086,75.365-48.779,99.641-75.758
					c-3.525,27.644-1.782,87.728,52.042,173.927c1.239,1.983,3.857,2.585,5.839,1.346c1.98-1.239,2.581-3.853,1.342-5.834
					C886.987,9.583,905.105-55.059,907.847-63.25c51.84-64.442,59.975-126.405,60.025-126.75c0.333-2.313-1.271-4.46-3.588-4.792
					c-2.31-0.334-4.459,1.272-4.79,3.585c-0.042,0.289-5.927,44.962-39.903,97.362c-14.471,3.09-134.279,25.23-256.033-59.818
					c-1.918-1.343-4.56-0.874-5.902,1.044c-1.342,1.918-0.873,4.561,1.045,5.902C769.895-69.04,879.906-78.768,912.968-84.036
					c-3.506,4.966-7.273,9.981-11.307,15.014c-0.572,0.423-1.041,0.991-1.35,1.677C882.726-45.726,860.006-23.85,830.772-4.05
					c-0.24,0.105-0.472,0.234-0.695,0.391c-0.103,0.07-34.557,25.982-194.609-47.45c-2.123-0.97-4.637-0.034-5.604,2.092
					c-0.973,2.125-0.035,4.638,2.088,5.607C730.503,1.801,783.763,9.633,810.659,8.63C804.991,11.946,799.094,15.173,792.985,18.311
					z"/>
			</g>
			<g>
				<path id="_274771328" fill="#FCEEA9" d="M471.712,432.713c-43.52-94.559,84.311-115.865,263.554-70.142
					c179.247,45.721,169.229,121.35,146.359,150.252C812.89,599.673,525.039,548.586,471.712,432.713z"/>
				<path id="_443543024" fill="#FFBF3E" d="M465.931,382.586c0,0-0.107,0.298-0.287,0.859c0.099-0.288,0.213-0.575,0.315-0.859
					H465.931z M465,385.519c-5.564,18.58-31.751,121.878,44.194,206.739c83.781,93.614,242.197,110.78,311.916,44.673
					c69.719-66.114,72.479-153.117,72.479-153.117h-0.004c-1.392,11.768-6.274,21.832-11.956,29.01
					c-68.731,86.85-356.587,35.763-409.91-80.11C463.186,414.177,461.269,398.466,465,385.519L465,385.519z"/>
				<path id="_443541080" fill="#FFBF3E" d="M672.745,460.072c0,0,41.586,47.752,47.01,62.223
					c5.422,14.475-17.348,17.464-58.299,10.142c-40.955-7.326-76.475-17.815-84.996-29.922
					c-8.523-12.108,33.078-21.179,58.121-32.772C659.62,458.147,666.313,455.91,672.745,460.072z M645.02,447.962
					c0,0-77.019,31.051-105.635,24.875c-28.615-6.175-46.378-41.778-46.41-65.663c-0.031-23.878,28.668-45.959,53.697-39.134
					c25.027,6.825,58.512,36.374,73.746,47.806C635.649,427.273,664.655,443.438,645.02,447.962z M645.987,422.593
					c-1.581-2.33-53.821-35.632-65.068-56.147c-11.242-20.516,19.705-15.143,63.331-5.654c43.626,9.489,58.459,10.153,61.513,21.523
					c3.058,11.371-20.395,46.441-25.869,54.524C674.417,444.922,664.055,437.281,645.987,422.593L645.987,422.593z M687.954,439.198
					c0,0,22.041-35.142,39.499-48.16c17.461-13.015,38.125-5.138,67.489,7.116c29.367,12.256,49.332,20.291,51.797,25.896
					c2.461,5.597-25.306,17.603-58.133,21.608c-32.826,4.009-74.477,7.227-83.536,6.359
					C696.008,451.151,682.706,446.964,687.954,439.198z M705.376,461.066c0,0,86.065-12.543,124.019-9.566
					c37.954,2.976,51.164,15.049,46.605,30.695c-4.56,15.647-36.171,45.085-62.514,49.506c-26.346,4.422-46.482,4.893-65.312-8.224
					C729.339,510.355,674.638,462.245,705.376,461.066z"/>
				<path id="_443542520" fill="#E3A019" d="M643.49,609.368c2.923-1.491,6.495-0.327,7.983,2.593
					c1.487,2.918,0.33,6.491-2.59,7.976c-2.918,1.491-6.494,0.333-7.982-2.585C639.413,614.431,640.571,610.852,643.49,609.368z
					 M780.635,640.909c1.545-0.788,3.438-0.178,4.226,1.37c0.789,1.542,0.174,3.431-1.371,4.219
					c-1.544,0.789-3.438,0.178-4.225-1.37C778.476,643.586,779.09,641.69,780.635,640.909z M728.92,635.149
					c1.463-0.746,3.249-0.163,3.991,1.292c0.746,1.463,0.164,3.246-1.293,3.992c-1.463,0.745-3.245,0.163-3.991-1.293
					C726.882,637.677,727.464,635.894,728.92,635.149z M606.595,621.91c1.633-0.83,3.629-0.177,4.459,1.449
					c0.832,1.634,0.186,3.629-1.445,4.46c-1.633,0.831-3.629,0.185-4.459-1.448C604.317,624.744,604.964,622.748,606.595,621.91z
					 M608.107,576.086c2.234-1.136,4.965-0.249,6.105,1.982c1.136,2.231,0.248,4.965-1.982,6.102
					c-2.233,1.143-4.965,0.255-6.104-1.982C604.985,579.957,605.873,577.223,608.107,576.086z M665.024,608.572
					c1.374-0.703,3.058-0.156,3.754,1.222c0.703,1.371,0.156,3.054-1.215,3.75c-1.378,0.703-3.058,0.156-3.758-1.214
					C663.107,610.952,663.649,609.275,665.024,608.572L665.024,608.572z M651.995,638.331c1.886-0.959,4.197-0.206,5.164,1.676
					c0.962,1.89,0.213,4.205-1.677,5.163c-1.89,0.967-4.201,0.214-5.163-1.668C649.353,641.612,650.107,639.296,651.995,638.331z
					 M659.723,569.744c1.374-0.695,3.058-0.148,3.757,1.223c0.699,1.37,0.156,3.054-1.218,3.757
					c-1.374,0.703-3.058,0.156-3.757-1.222C657.805,572.13,658.352,570.447,659.723,569.744z M831.405,566.826
					c1.371-0.696,3.054-0.156,3.754,1.221c0.699,1.371,0.156,3.055-1.219,3.758c-1.374,0.695-3.054,0.156-3.757-1.222
					C829.483,569.211,830.027,567.529,831.405,566.826z M782.624,576.811c2.488-1.265,5.535-0.277,6.807,2.209
					c1.271,2.493,0.281,5.54-2.209,6.811c-2.488,1.271-5.535,0.277-6.807-2.208C779.147,581.129,780.134,578.082,782.624,576.811z
					 M715.383,580.937c0.941-0.482,2.099-0.106,2.581,0.838c0.481,0.945,0.104,2.096-0.838,2.578
					c-0.947,0.483-2.102,0.107-2.581-0.838C714.061,582.571,714.435,581.42,715.383,580.937L715.383,580.937z M814.153,595.994
					c1.371-0.695,3.055-0.148,3.754,1.222c0.703,1.378,0.156,3.062-1.218,3.757c-1.374,0.703-3.058,0.156-3.757-1.221
					C812.233,598.38,812.78,596.697,814.153,595.994z M787.339,620.248c2.064-1.052,4.585-0.234,5.637,1.825
					c1.051,2.066,0.23,4.588-1.83,5.639c-2.062,1.051-4.584,0.228-5.635-1.832C784.46,623.821,785.28,621.299,787.339,620.248z
					 M753.601,637.059c1.889-0.959,4.201-0.213,5.162,1.677c0.963,1.889,0.214,4.204-1.676,5.163
					c-1.889,0.966-4.201,0.213-5.163-1.677C750.962,640.333,751.711,638.025,753.601,637.059z M745.344,599.744
					c1.974-1.008,4.393-0.227,5.397,1.748c1.006,1.974,0.225,4.395-1.75,5.397c-1.975,1.009-4.392,0.228-5.398-1.747
					C742.585,603.167,743.369,600.746,745.344,599.744z M693.153,631.839c2.315-1.18,5.156-0.256,6.334,2.06
					c1.184,2.315,0.264,5.156-2.055,6.335c-2.32,1.185-5.156,0.263-6.34-2.053C689.911,635.859,690.831,633.025,693.153,631.839z
					 M701.7,607.499c2.919-1.484,6.492-0.326,7.979,2.593c1.491,2.919,0.33,6.491-2.589,7.982c-2.919,1.484-6.495,0.327-7.982-2.592
					C697.62,612.564,698.781,608.992,701.7,607.499z M702.677,652.059c0.771-0.391,1.719-0.085,2.109,0.688
					c0.394,0.768,0.089,1.712-0.686,2.109c-0.771,0.391-1.715,0.086-2.109-0.688C701.597,653.402,701.903,652.45,702.677,652.059z"
					/>
			</g>
			<g>
				<path id="_271216248" fill="#549266" d="M72.986,443.168c0,0-36.371,8.473-60.156,20.617
					c-23.786,12.138-78.766,17.649-110.925-47.642c-32.161-65.298-44.325-68.395-58.965-74.619
					c-14.64-6.228-0.721-9.897,20.154-3.122c20.874,6.783,44.908,16.9,82.044,16.698C-17.726,354.902,32.626,318.506,72.986,443.168
					z M115.758,581.001c0,0-20.593,25.178-28.896,44.694c-8.303,19.517-25.006,59.872-77.044,54.211
					c-52.038-5.66-60.211-6.2-80.104-3.451c-19.895,2.748-26.131,2.194-10.61-7.237c15.52-9.44,21.648-36.022,48.748-70.391
					C-5.046,564.467,27.841,548.828,115.758,581.001z M228.962,452.742c0,0-25.657-76.427-0.847-146.927
					c24.808-70.501,50.44-66.15,81.28-82.404c30.843-16.257,30.489-25.895,65.481-51.912c34.989-26.014,11.25-2.244,4.244,26.751
					c-7.007,28.996,19.766,57.072-11.027,111.461C337.298,364.099,349.979,417.529,228.962,452.742z M135.313,428.652
					c0,0,0.71-5.295,31.658-34.177c30.948-28.878,52.542-51.96,32.377-103.788c-20.163-51.828-13.908-71.971-17.745-102.021
					c-3.837-30.051-10.755-17.559-21.294,5.899c-10.54,23.455-5.561,24.223-29.506,61.929
					C106.858,294.199,80.148,321.386,135.313,428.652z M77.522,385.512c0,0-4.282-9.936,10.884-55.518
					c15.167-45.578,33.663-109.502-8.148-138.566c-41.81-29.062-57.216-43.562-68.929-78.089
					c-11.715-34.523-9.89,2.66-20.438,24.178c-10.548,21.521-30.68,17.198-34.867,70.277c-4.19,53.078,32.866,84.569,58.13,101.913
					C39.417,327.046,34.424,335.658,77.522,385.512z"/>
				<path id="_271214952" fill="#306841" d="M116.024,466.368c-0.149-0.436-0.373-0.849-0.664-1.226
					c-24.549-44.85-44.242-102.052-53.873-175.02c-0.312-2.316-2.445-3.945-4.762-3.633c-2.317,0.312-3.943,2.446-3.631,4.762
					c8.693,65.859,25.495,119.14,46.691,162.265c-25.328-17.109-80.695-48.434-149.188-50.554c-2.333-0.064-4.283,1.775-4.346,4.112
					c-0.066,2.329,1.773,4.282,4.108,4.347c86.038,2.663,150.701,52.911,158.21,58.984c23.37,42.343,51.026,73.863,78.721,97.314
					c-27.74-2.691-87.743,0.859-172.283,57.251c-1.946,1.3-2.468,3.928-1.17,5.874c1.298,1.945,3.929,2.464,5.873,1.172
					c107.864-71.953,173.022-55.789,181.292-53.296c65.971,49.879,128.151,56.15,128.499,56.186
					c2.319,0.262,4.418-1.406,4.681-3.729c0.263-2.322-1.406-4.417-3.728-4.681c-0.288-0.035-45.119-4.573-98.519-36.952
					c-3.523-14.375-29.258-133.466,52.092-257.719c1.282-1.96,0.737-4.588-1.222-5.866c-1.957-1.286-4.585-0.739-5.868,1.218
					c-74.295,113.483-61.264,223.148-55.003,256.039c-5.069-3.353-10.195-6.968-15.346-10.853c-0.44-0.554-1.025-1.008-1.719-1.293
					c-22.138-16.932-44.688-38.983-65.355-67.605c-0.115-0.238-0.252-0.469-0.414-0.686c-0.074-0.103-27.008-33.757,41.575-195.947
					c0.905-2.151-0.106-4.634-2.259-5.539c-2.154-0.906-4.636,0.107-5.542,2.258c-42.23,99.865-48.455,153.338-46.642,180.191
					C122.75,478.175,119.344,472.379,116.024,466.368L116.024,466.368z"/>
			</g>
			<g>
				<path id="_443540792" fill="#549266" d="M1104.704,412.16c0,0-12.312-25.901-33.072-42.557
					c-20.76-16.662-64.635-74.971-30.93-121.331c33.699-46.359,26.65-64.458,37.123-103.584
					c10.469-39.126,32.801-58.349,31.811-37.276c-0.99,21.072,2.606,26.561,34.56,82.209
					C1176.151,245.272,1244.23,304.774,1104.704,412.16L1104.704,412.16z"/>
				<path id="_271217280" fill="#549266" d="M1070.112,456.79c0,0-3.896-72.763-55.057-80.191
					c-51.158-7.437-52.44-0.191-85.326-16.381c-32.885-16.191-39.066-6.478-60.025,1.228c-20.963,7.702,11.477,10.344,18.043,31.427
					c6.562,21.083,19.531,99.868,88.778,72.173C1045.772,437.351,1041.213,465.91,1070.112,456.79z"/>
				<path id="_271215744" fill="#306841" d="M1163.841,607.627c1.199,2.003,3.803,2.656,5.809,1.456c2.01-1.2,2.664-3.807,1.46-5.81
					c-16.743-28.032-30.508-58.292-40.777-89.332c-0.05-0.206-0.117-0.412-0.199-0.61c-40.567-123.16-17.728-228.486-17.649-228.859
					c0.48-2.29-0.994-4.542-3.288-5.024c-2.294-0.479-4.542,0.994-5.021,3.288c-0.078,0.362-20.867,96.235,11.654,212.634
					c-28.075-32.379-95.352-98.309-167.965-84.573c-2.301,0.436-3.811,2.656-3.373,4.957c0.437,2.301,2.659,3.807,4.957,3.374
					c86.559-16.378,166.654,89.253,172.947,97.759C1132.889,548.573,1146.702,578.942,1163.841,607.627L1163.841,607.627z"/>
			</g>
			<g>
				<path id="_443542160" fill="#549266" d="M334.55,111.593c0,0-20.242-20.317-28.933-45.476
					c-8.691-25.161-48.812-86.114-103.815-70c-55.005,16.113-69.669,3.379-110.037,0.058C51.397-7.151,25.775,7.4,45.949,13.568
					c20.176,6.167,24.132,11.401,65.762,60.236C153.339,122.639,186.43,206.785,334.55,111.593z"/>
				<path id="_271217160" fill="#549266" d="M388.228,94.056c0,0-67.196-28.18-56.96-78.853
					c10.238-50.671,17.492-49.439,13.327-85.855c-4.165-36.417,7.06-38.967,21.378-56.104c14.314-17.139,5.873,14.296,23.512,27.578
					c17.635,13.281,87.45,52.035,38.047,107.901C378.126,64.592,406.548,69.919,388.228,94.056z"/>
				<path id="_271217808" fill="#306841" d="M498.669,233.126c1.484,1.812,1.221,4.482-0.586,5.967
					c-1.809,1.484-4.479,1.225-5.963-0.583c-20.753-25.211-44.605-48.362-70.369-68.492c-0.178-0.115-0.348-0.247-0.512-0.393
					c-102.29-79.686-209.152-93.666-209.534-93.719c-2.321-0.322-3.942-2.465-3.623-4.787c0.32-2.322,2.465-3.943,4.787-3.622
					c0.368,0.05,97.64,12.773,196.274,82.609c-21.026-37.34-60.437-122.897-23.04-186.64c1.187-2.019,3.785-2.691,5.803-1.504
					c2.02,1.187,2.695,3.785,1.506,5.803c-44.578,75.982,27.895,186.982,33.781,195.773
					C453.491,184.096,477.433,207.33,498.669,233.126L498.669,233.126z"/>
			</g>
			<g>
				<path id="_442951536" fill="#549266" d="M880.386-195.147c0,0-5.455-9.345,4.088-56.424
					c9.541-47.08,20.166-112.776-24.852-136.565c-45.021-23.79-62.066-36.322-77.872-69.177
					c-15.803-32.853-9.492,3.837-17.362,26.474c-7.865,22.636-28.373,20.782-26.111,73.978
					c2.266,53.195,42.859,79.973,70.035,94.131C835.489-248.572,831.572-239.42,880.386-195.147z"/>
				<path id="_440746168" fill="#306841" d="M797.585-399.105c-0.775-1.849-2.902-2.721-4.748-1.946
					c-1.85,0.771-2.721,2.897-1.95,4.746c0.064,0.152,22.163,53.038,52.194,93.996c14.546,19.833,23.217,45.178,28.509,70.607
					c5.337,25.641,7.227,51.346,8.218,71.668c0.096,2.001,1.8,3.546,3.799,3.446c2.003-0.098,3.545-1.802,3.445-3.801
					c-1.002-20.638-2.923-46.74-8.35-72.817c-5.472-26.291-14.506-52.585-29.751-73.377
					C819.405-346.877,797.645-398.956,797.585-399.105z"/>
			</g>
			<g>
				<path id="_273387568" fill="#549266" d="M231.51,886.163c0,0-5.453-9.347,4.087-56.427
					c9.542-47.081,20.169-112.776-24.851-136.562c-45.018-23.792-62.065-36.327-77.869-69.183
					c-15.806-32.848-9.496,3.843-17.363,26.478c-7.868,22.635-28.375,20.781-26.11,73.977c2.264,53.196,42.856,79.972,70.032,94.133
					C186.613,832.733,182.696,841.887,231.51,886.163z"/>
				<path id="_273387904" fill="#306841" d="M148.707,682.201c-0.772-1.846-2.899-2.72-4.746-1.945
					c-1.85,0.773-2.72,2.897-1.948,4.744c0.064,0.156,22.161,53.039,52.194,93.998c14.542,19.836,23.216,45.177,28.507,70.61
					c5.335,25.639,7.225,51.342,8.215,71.669c0.098,2.002,1.801,3.543,3.802,3.444c2.001-0.1,3.544-1.804,3.446-3.8
					c-1.005-20.639-2.926-46.74-8.352-72.819c-5.471-26.292-14.505-52.585-29.749-73.38
					C170.53,734.431,148.769,682.35,148.707,682.201L148.707,682.201z"/>
			</g>
			<g>
				<path id="_272359672" fill="#549266" d="M-172.26,453.516c0,0,17.991,8.637,30.832,10.76
					c12.841,2.124,39.32,6.235,43.482,38.082c4.16,31.851,5.021,36.801,9.541,48.267c4.521,11.463,5.094,15.264-2.781,7.373
					c-7.874-7.884-24.611-7.692-49.026-18.871C-164.625,527.941-178.712,510.597-172.26,453.516z"/>
				<path id="_273389320" fill="#306841" d="M-176.326,423.19c-0.298-1.989-2.15-3.353-4.134-3.054
					c-1.984,0.294-3.352,2.145-3.054,4.133c2.326,15.291,7.5,34.56,18.683,53.26c8.394,14.041,20.174,27.741,36.662,39.169
					c1.647,1.136,3.906,0.725,5.042-0.923c1.139-1.648,0.725-3.906-0.923-5.043c-15.542-10.767-26.644-23.685-34.56-36.925
					C-169.195,456.109-174.106,437.771-176.326,423.19z"/>
			</g>
			<g>
				<path id="_273388816" fill="#549266" d="M-108.656,271.472c0,0-19.897-1.538-32.637,1.129
					c-12.738,2.67-38.912,8.416-54.318-19.766c-15.403-28.182-17.999-32.485-26.362-41.539c-8.363-9.05-10.273-12.383-0.077-7.88
					c10.193,4.501,25.727-1.738,52.534-0.151C-142.708,204.853-123.301,215.925-108.656,271.472z"/>
				<path id="_273390208" fill="#306841" d="M-93.891,298.276c0.996,1.739,3.218,2.344,4.96,1.349
					c1.742-0.994,2.347-3.217,1.351-4.957c-7.704-13.416-19.499-29.506-36.693-42.894c-12.907-10.05-28.846-18.561-48.353-23.242
					c-1.946-0.466-3.902,0.738-4.364,2.685c-0.465,1.946,0.737,3.902,2.685,4.368c18.386,4.41,33.409,12.436,45.579,21.91
					C-112.452,270.165-101.237,285.481-93.891,298.276L-93.891,298.276z"/>
			</g>
			<g>
				<path id="_273391576" fill="#549266" d="M-297.547-273.648c0,0-8.91,17.855-11.232,30.66
					c-2.324,12.806-6.851,39.217-38.757,42.886c-31.907,3.666-36.872,4.449-48.404,8.792c-11.532,4.343-15.339,4.856-7.331-2.894
					c8.008-7.753,8.072-24.49,19.631-48.729C-372.08-267.17-354.518-280.985-297.547-273.648L-297.547-273.648z"/>
				<path id="_273391888" fill="#306841" d="M-267.157-277.244c1.989-0.268,3.386-2.099,3.118-4.085
					c-0.266-1.989-2.099-3.387-4.087-3.12c-15.329,2.09-34.673,6.964-53.546,17.855c-14.171,8.176-28.05,19.74-39.731,36.049
					c-1.163,1.63-0.785,3.895,0.845,5.057c1.63,1.163,3.894,0.785,5.057-0.845c11.009-15.373,24.097-26.273,37.454-33.982
					C-300.182-270.624-281.773-275.25-267.157-277.244z"/>
			</g>
			<g>
				<path id="_440747104" fill="#549266" d="M-724.158,45.169c0,0,13.313-14.865,18.938-26.601
					c5.625-11.736,16.971-36.012,48.714-31.114c31.742,4.9,36.736,5.456,49.006,4.316c12.27-1.141,16.079-0.631,6.307,4.729
					c-9.772,5.359-14.258,21.484-31.814,41.804C-650.563,58.624-671.152,67.307-724.158,45.169z"/>
				<path id="_273389296" fill="#306841" d="M-754.418,40.605c-1.989-0.271-3.819,1.127-4.087,3.116
					c-0.267,1.988,1.128,3.818,3.116,4.087c15.336,2.036,35.28,2.45,56.362-3.064c15.828-4.139,32.271-11.623,47.848-24.267
					c1.552-1.263,1.786-3.548,0.521-5.098c-1.264-1.554-3.549-1.788-5.099-0.523c-14.682,11.916-30.185,18.969-45.107,22.873
					C-720.818,42.951-739.794,42.545-754.418,40.605z"/>
			</g>
			<g>
				<path id="_273388840" fill="#549266" d="M-84.308-324.031c0,0,6.103-19.001,6.458-32.01
					c0.357-13.012,0.827-39.803,31.812-48.262c30.983-8.459,35.772-9.984,46.515-16.024c10.74-6.039,14.426-7.125,7.685,1.751
					c-6.742,8.876-4.269,25.43-12.022,51.14C-11.616-341.726-26.881-325.409-84.308-324.031z"/>
				<path id="_273389152" fill="#306841" d="M-113.803-315.875c-1.925,0.565-3.027,2.586-2.462,4.511
					c0.564,1.926,2.585,3.028,4.512,2.462c14.835-4.387,33.219-12.134,50.225-25.758c12.766-10.23,24.735-23.762,33.81-41.654
					c0.902-1.786,0.184-3.967-1.602-4.87c-1.786-0.902-3.967-0.185-4.868,1.603c-8.555,16.863-19.839,29.62-31.875,39.264
					C-82.161-327.42-99.657-320.059-113.803-315.875z"/>
			</g>
			<g>
				<path id="_273390616" fill="#549266" d="M547.361-352.748c0,0-19.212,5.396-30.255,12.278
					c-11.049,6.884-33.651,21.274-57.807,0.104c-24.15-21.171-28.067-24.322-39.033-29.947c-10.963-5.625-13.898-8.097-2.777-7.374
					c11.123,0.723,23.562-10.474,49.283-18.193C492.489-403.603,514.52-399.876,547.361-352.748L547.361-352.748z"/>
				<path id="_273386536" fill="#306841" d="M570.44-332.651c1.533,1.294,3.828,1.099,5.124-0.435
					c1.292-1.534,1.094-3.828-0.436-5.122c-11.847-9.95-28.452-21.005-49.201-27.669c-15.575-5.002-33.466-7.514-53.394-5.209
					c-1.988,0.234-3.409,2.034-3.175,4.023c0.23,1.986,2.031,3.408,4.02,3.176c18.786-2.171,35.649,0.197,50.334,4.913
					C543.349-352.668,559.144-342.138,570.44-332.651z"/>
			</g>
			<g>
				<path id="_273389272" fill="#549266" d="M459.56-135.787c0,0-11.022-16.635-20.959-25.042
					c-9.932-8.405-30.557-25.515-17.805-54.991c12.756-29.478,14.556-34.169,16.552-46.329c1.995-12.159,3.448-15.716,6.165-4.906
					c2.72,10.808,17.188,19.221,32.422,41.337C491.161-203.598,494.364-181.486,459.56-135.787z"/>
				<path id="_440745832" fill="#306841" d="M447.5-107.662c-0.76,1.857,0.128,3.98,1.985,4.742c1.853,0.762,3.98-0.126,4.74-1.982
					c5.842-14.325,11.279-33.52,11.268-55.309c-0.01-16.36-3.1-34.162-11.398-52.426c-0.831-1.821-2.983-2.624-4.801-1.793
					c-1.822,0.831-2.625,2.982-1.794,4.803c7.823,17.216,10.735,33.997,10.742,49.419
					C458.257-139.579,453.071-121.321,447.5-107.662L447.5-107.662z"/>
			</g>
			<g>
				<path id="_442951776" fill="#549266" d="M967.733-260.547c0,0,17.588-9.423,26.885-18.532
					c9.297-9.11,28.253-28.05,56.414-12.604c28.16,15.445,32.662,17.674,44.584,20.796c11.921,3.119,15.326,4.898,4.311,6.598
					c-11.016,1.699-20.738,15.321-44.18,28.425C1032.307-222.764,1009.991-221.638,967.733-260.547z"/>
				<path id="_442952136" fill="#306841" d="M940.861-275.174c-1.778-0.933-3.974-0.245-4.907,1.532
					c-0.931,1.777-0.245,3.976,1.533,4.905c13.719,7.154,32.323,14.354,54.02,16.373c16.289,1.514,34.3,0.098,53.257-6.464
					c1.893-0.658,2.891-2.725,2.232-4.614c-0.656-1.891-2.723-2.891-4.615-2.231c-17.866,6.184-34.848,7.52-50.203,6.09
					C971.64-261.494,953.94-268.355,940.861-275.174z"/>
			</g>
			<g>
				<path id="_442952352" fill="#549266" d="M811.53,299.291c0,0,8.703-17.955,10.88-30.788c2.173-12.827,6.396-39.29,38.26-43.324
					c31.864-4.034,36.821-4.872,48.303-9.348c11.48-4.475,15.28-5.034,7.361,2.811c-7.915,7.841-7.791,24.577-19.069,48.948
					C885.982,291.961,868.582,305.974,811.53,299.291z"/>
				<path id="_442952208" fill="#306841" d="M781.182,303.237c-1.985,0.287-3.359,2.138-3.068,4.122
					c0.288,1.985,2.134,3.359,4.123,3.068c15.302-2.266,34.588-7.357,53.335-18.466c14.076-8.338,27.822-20.06,39.317-36.505
					c1.144-1.641,0.739-3.9-0.905-5.043c-1.641-1.144-3.902-0.738-5.047,0.902c-10.83,15.497-23.792,26.548-37.058,34.41
					C814.129,296.238,795.776,301.074,781.182,303.237z"/>
			</g>
			<g>
				<path id="_442952640" fill="#549266" d="M436.183,277.043c0,0,4.852,19.357,11.42,30.593
					c6.574,11.236,20.324,34.233-1.516,57.784c-21.844,23.544-25.104,27.372-31.033,38.174c-5.931,10.803-8.484,13.669-7.451,2.571
					c1.037-11.098-9.808-23.85-16.803-49.772C383.804,330.462,388.15,308.545,436.183,277.043z"/>
				<path id="_442953000" fill="#306841" d="M456.921,254.54c1.336-1.499,1.204-3.801-0.291-5.136
					c-1.498-1.335-3.796-1.204-5.135,0.292c-10.277,11.562-21.793,27.851-29.037,48.401c-5.438,15.433-8.452,33.245-6.709,53.231
					c0.178,1.992,1.94,3.466,3.936,3.288c1.992-0.178,3.465-1.939,3.288-3.935c-1.648-18.835,1.196-35.625,6.321-50.174
					C436.154,281.056,447.12,265.563,456.921,254.54z"/>
			</g>
			<g>
				<path id="_442953432" fill="#549266" d="M940.255,645.404c0,0-12.827,15.284-18.068,27.202
					c-5.245,11.91-15.796,36.541-47.682,32.67c-31.885-3.863-36.893-4.261-49.123-2.72c-12.227,1.534-16.047,1.15-6.451-4.524
					c9.591-5.675,13.555-21.938,30.443-42.812C866.263,634.339,886.558,624.993,940.255,645.404z"/>
				<path id="_442953288" fill="#306841" d="M970.638,648.991c2,0.199,3.782-1.25,3.988-3.245c0.202-1.996-1.254-3.786-3.25-3.984
					c-15.394-1.541-35.34-1.307-56.231,4.886c-15.686,4.652-31.879,12.663-47.038,25.803c-1.51,1.314-1.67,3.601-0.356,5.113
					s3.604,1.669,5.113,0.355c14.29-12.387,29.557-19.937,44.34-24.325C936.979,647.734,955.961,647.521,970.638,648.991z"/>
			</g>
			<g>
				<path id="_442953720" fill="#549266" d="M1470.679,668.906c0,0-19.627-3.602-32.574-2.273
					c-12.947,1.321-39.578,4.312-51.964-25.318c-12.386-29.639-14.517-34.184-21.89-44.056c-7.375-9.872-8.927-13.388,0.742-7.848
					c9.67,5.539,25.768,0.951,52.263,5.319C1443.755,599.105,1461.903,612.137,1470.679,668.906L1470.679,668.906z"/>
				<path id="_442954080" fill="#306841" d="M1482.575,697.109c0.81,1.832,2.955,2.663,4.794,1.853
					c1.833-0.803,2.667-2.955,1.857-4.787c-6.265-14.148-16.321-31.378-32.024-46.484c-11.793-11.335-26.758-21.463-45.671-28.153
					c-1.886-0.66-3.956,0.334-4.62,2.216c-0.664,1.89,0.326,3.963,2.216,4.624c17.827,6.307,31.933,15.853,43.05,26.541
					C1467.042,667.222,1476.603,683.615,1482.575,697.109L1482.575,697.109z"/>
			</g>
			<g>
				<path id="_271218600" fill="#549266" d="M1481.595-350.954c0,0-19.627-3.6-32.578-2.271
					c-12.943,1.327-39.573,4.315-51.959-25.319c-12.387-29.636-14.518-34.186-21.894-44.059s-8.927-13.386,0.742-7.845
					c9.677,5.54,25.771,0.952,52.266,5.323C1454.667-420.752,1472.816-407.72,1481.595-350.954z"/>
				<path id="_443541104" fill="#306841" d="M1491.751-342.039c-5.902-10.007-13.618-20.501-23.629-30.13
					c-11.79-11.34-26.754-21.463-45.671-28.154c-1.886-0.661-3.956,0.33-4.62,2.219c-0.664,1.888,0.326,3.96,2.216,4.622
					c17.827,6.305,31.935,15.849,43.05,26.539c13.494,12.982,22.614,27.691,28.654,40.387V-342.039z"/>
			</g>
			<path id="_271218504" fill="#306841" d="M-846.503-322.754c0.81,1.834,2.956,2.667,4.792,1.859
				c1.836-0.811,2.67-2.957,1.86-4.793c-2.272-5.129-5.042-10.662-8.398-16.351v15.482
				C-847.636-325.267-847.054-324-846.503-322.754z"/>
			<g>
				<path id="_443543720" fill="#549266" d="M-307.904,839.011c0,0-19.922,1.15-32.188,5.504
					c-12.266,4.354-37.431,13.559-56.479-12.301c-19.048-25.859-22.196-29.779-31.699-37.621
					c-9.503-7.848-11.841-10.895-1.135-7.798c10.708,3.09,25.261-5.178,52.038-7.202
					C-350.587,777.57-329.87,785.936-307.904,839.011z"/>
				<path id="_442954224" fill="#306841" d="M-289.673,863.585c1.22,1.59,3.503,1.896,5.096,0.674
					c1.593-1.221,1.895-3.501,0.673-5.092c-9.435-12.266-23.283-26.619-42.117-37.585c-14.142-8.225-31.076-14.518-51.035-16.541
					c-1.992-0.199-3.77,1.257-3.966,3.245c-0.199,1.996,1.255,3.771,3.247,3.971c18.812,1.903,34.776,7.841,48.107,15.596
					C-311.839,838.23-298.669,851.894-289.673,863.585L-289.673,863.585z"/>
			</g>
		</g>
	</g>
</g>
</svg>
