<?xml version="1.0" encoding="utf-8"?>
<!-- Generator: Adobe Illustrator 27.0.1, SVG Export Plug-In . SVG Version: 6.00 Build 0)  -->
<svg version="1.1" id="Ebene_1" xmlns="http://www.w3.org/2000/svg" xmlns:xlink="http://www.w3.org/1999/xlink" x="0px" y="0px"
	 viewBox="0 0 300 300" style="enable-background:new 0 0 300 300;" xml:space="preserve">
<style type="text/css">
	.st0{fill:none;stroke:#333333;stroke-width:6.2167;stroke-linecap:round;stroke-linejoin:round;stroke-miterlimit:10;}
	.st1{fill:none;stroke:#333333;stroke-width:6.2167;stroke-miterlimit:10;}
</style>
<g>
	<path class="st0" d="M253.1,167.7c-6.2,0.6-11.7-4-12.3-10.2c-0.6-6.2,4-11.7,10.2-12.3c6.2-0.6,11.8,4,12.3,10.2
		C263.9,161.6,259.4,167.1,253.1,167.7z"/>
	<path class="st0" d="M248.7,120.5c-6.2,0.6-11.7-4-12.3-10.2c-0.6-6.2,4-11.7,10.2-12.3c6.2-0.6,11.7,4,12.3,10.2
		C259.5,114.4,255,119.9,248.7,120.5z"/>
	<path class="st0" d="M48.9,64.9c0,5.1-2.8,9.3-6.2,9.3c-3.4,0-6.2-4.1-6.2-9.3c0-5.1,2.8-9.3,6.2-9.3
		C46.1,55.7,48.9,59.8,48.9,64.9z"/>
	<path class="st0" d="M101.9,44.4c0,3.4-2.8,6.2-6.2,6.2c-3.4,0-6.2-2.8-6.2-6.2c0-3.4,2.8-6.2,6.2-6.2
		C99.2,38.2,101.9,41,101.9,44.4z"/>
	<path class="st0" d="M129.5,22l-1.5-3.8l-5.6-14.2l-5.6,14.2l-1.4,3.5c5.5,0.1,10.1,0.2,12.9,0.2C128.8,21.9,129.2,22,129.5,22z"/>
	<path class="st0" d="M154.9,23.3l1.4-15.2l-11.3,10.2l-5.7,5.1c5.5,1.4,10.5,3.9,14.9,7.3L154.9,23.3z"/>
	<path class="st0" d="M170,42.7l8.1-12.9l-14.7,4L159,35c3.4,3.6,6.2,7.7,8.2,12.2L170,42.7z"/>
	<path class="st0" d="M169.9,55.2c0,0,0,0.1,0,0.1c0.6,2.9,1,5.9,1,8.9c0,3-0.3,5.9-0.9,8.7c0,0,0,0.1,0,0.2l8.7-8.3l11.1-10.5
		l-15.2,0.2l-4.8,0.1C169.7,54.9,169.8,55.1,169.9,55.2L169.9,55.2z"/>
	<path class="st0" d="M189.8,82.2L170,76c0.1,5.8,0.2,12.6,0.3,19.9L189.8,82.2z"/>
	<path class="st0" d="M193,103.5l-22.6-6.8c0.1,5.7,0.3,11.8,0.5,18L193,103.5z"/>
	<path class="st0" d="M175.9,174.8l13.4-7.2l-14.8-3.8l-0.7-0.2c0.4,4.1,0.9,7.9,1.4,11.5L175.9,174.8z"/>
	<path class="st0" d="M181.4,198.9l4.6-4.4l11-10.5l-15.2,0.2l-5,0.1c0.4,1.9,0.8,3.7,1.2,5.3C178.6,192.3,179.9,195.5,181.4,198.9z
		"/>
	<path class="st0" d="M194.9,215l9.5-11.9l-15.1,2.3l-4.4,0.7c2.1,4.1,4.6,8.3,7.3,12.3L194.9,215z"/>
	<path class="st0" d="M245.8,245.9l-0.6-1.4l-1.9-14.2l-9.3,14.2l-0.4,1C238.1,246,242.1,246.1,245.8,245.9z"/>
	<path class="st0" d="M256.6,234.1l-4.4,11.1c3.1-0.5,5.8-1.2,8-1.9L256.6,234.1z"/>
	<path class="st0" d="M204.2,233h6.7l3.4-18l-17.2,7.8l-1.2,0.6C198.5,227.1,201.3,230.4,204.2,233z"/>
	<path class="st0" d="M227.1,242.1l1.5-15.2l-11.4,10.1l-3,2.7c4.4,2,8.6,3.4,12.7,4.4L227.1,242.1z"/>
	<path class="st0" d="M111.4,126.9c-2.6,0-5.1,0.8-7.3,2.2l0,0c0,0-0.2,0.1-0.2,0.2c-0.8,0.5-1.5,1.1-2.3,1.7
		c-3.1,2.2-9.2,5.8-17.9,8.5c-6.8,2.1-15.2,3.7-25.2,3.5c-3.3-0.1-9-1.7-14-3.4c-2.8-6.2-8.1-10.5-14.3-10.5
		c-9.1,0-16.5,9-16.5,20.2c0,11.2,7.4,18.1,16.5,18.1c5.2,0,9.7-2.3,12.7-6.3c5.3,3.2,12.5,6.5,20.8,7.2c3.7,0.3,7.1,0.5,10.3,0.7
		c27.3,1.4,37.3-1.6,37.3-1.6c9.1,0,16.5-9,16.5-20.2C127.8,135.9,120.5,126.9,111.4,126.9z"/>
	<path class="st0" d="M137.9,240.8c0-24.7-14.9-44.1-28.5-44.1c-13.6,0-24.7,11.1-24.7,24.7c0,3.6,0.8,6.9,2.2,10
		c0,0,2.4,6.9-2.2,14.7c-0.9,1.6-2.1,3-3.3,4.4c-11.9,13.3-35.2,13.8-35.2,13.8l0,0.2c-7.2,1.2-12.8,7.7-12.8,15.7
		c0,8.8,6.8,15.9,15.1,15.9l36.1-1.6c0,0,27.3-0.6,41.7-17.4c3-3.5,5.5-7.7,7-12.8l0.2-0.1l-0.1-0.1
		C136.2,257.6,137.9,249.8,137.9,240.8z"/>
	<path class="st1" d="M226.6,146.2c-1.6,3.9-2.4,8.2-2,12.7c1.4,15.2,14.9,26.3,30,24.9c15.2-1.4,26.3-14.9,24.9-30
		c-0.9-10.1-7.3-18.3-15.8-22.4c7.7-5.5,12.4-14.8,11.4-24.9c-1.4-15.2-14.9-26.3-30-24.9c-15.2,1.4-26.3,14.9-24.9,30
		c0.4,4.4,1.9,8.4,4.1,11.9l-52.9,4.3c0.4,7.7,0.8,15.3,1.4,22.7L226.6,146.2z"/>
	<path class="st0" d="M286.3,245.6c0-5.8-4.7-10.6-10.6-10.6c-4.2,0-7.7,2.5-9.4,6l0,0c0,0-2.2,1.1-6,2.4c-2.1,0.7-4.8,1.4-8,1.9
		c-2,0.3-4.1,0.6-6.5,0.7c-3.6,0.2-7.7,0.1-12-0.5c-2.2-0.3-4.5-0.7-6.8-1.3c-4-1-8.3-2.4-12.7-4.4c-0.9-0.4-1.9-0.8-2.8-1.3
		c-2.4-1.2-4.8-3.1-7.3-5.4c-2.8-2.7-5.7-6-8.4-9.6c-1.2-1.6-2.4-3.3-3.6-5c-2.7-4-5.2-8.2-7.3-12.3c-1.3-2.5-2.5-4.9-3.5-7.2
		c-1.5-3.4-2.7-6.6-3.5-9.3c-0.4-1.6-0.8-3.4-1.2-5.3c-0.5-2.7-1-5.9-1.5-9.2c-0.5-3.6-1-7.5-1.4-11.5c-0.4-4.1-0.8-8.5-1.1-13
		c-0.6-7.3-1-15-1.4-22.7c-0.2-4.5-0.4-9-0.5-13.4c-0.2-6.2-0.4-12.2-0.5-18c0-0.3,0-0.5,0-0.8c-0.2-7.3-0.3-14-0.3-19.9
		c0-0.9,0-1.9,0-2.8c0-0.1,0-0.1,0-0.2c0.6-2.8,0.9-5.7,0.9-8.7c0-3.1-0.4-6-1-8.9c0,0,0-0.1,0-0.1l0,0c0-0.2-0.1-0.4-0.2-0.6
		c-0.6-2.6-1.5-5-2.5-7.4c-2-4.6-4.8-8.7-8.2-12.2c-1.5-1.6-3.1-3-4.8-4.3c-4.4-3.4-9.4-5.8-14.9-7.3c-3.1-0.8-6.3-1.4-9.7-1.5
		c-0.4,0-0.7-0.1-1.1-0.1c-2.8,0-7.4-0.1-12.9-0.2c-16.1-0.4-40-1.3-49.9-1.3c-26.4,0-47.9,19.7-47.9,43.9
		c0,24.2,21.4,43.9,47.9,43.9c1.8,0,3.6-0.3,5.3-0.5c1.1-0.1,2.3-0.1,3.4-0.3c1,0,2,0,3,0c0.2,0,0.4,0,0.7,0
		c6.6-2.7,12.9-6.2,16.8-10.8c10.5-12.4,8.7-27.5,8.7-27.5s1.8,15.1-8.7,27.5c-3.9,4.6-10.2,8.1-16.8,10.8c4.6,0.2,9.1,1,10.5,3.7
		c4.1,7.8-0.1,17.8-4.7,28.2c8.7-2.7,14.8-6.3,17.9-8.5c0.7-0.7,1.5-1.2,2.3-1.7c0,0,0.2-0.2,0.2-0.2l0,0c2.2-1.3,4.7-2.2,7.3-2.2
		c9.1,0,16.5,9,16.5,20.2c0,11.2-7.4,20.2-16.5,20.2c0,0-10,3-37.3,1.6c-3.2,15-5.9,32.6-5.9,32.6l0.5,0.9c-0.3,2.6-0.5,5.2-0.5,7.9
		c0,15.4,5.1,29.3,13.2,40.1c1.2-1.3,2.3-2.8,3.3-4.4c4.6-7.9,2.2-14.7,2.2-14.7c-1.4-3.1-2.2-6.4-2.2-10
		c0-13.6,11.1-24.7,24.7-24.7c13.7,0,28.5,19.4,28.5,44.1c0,9.1-1.7,16.8-4.4,23.4l0.1,0.1l-0.2,0.1c-1.5,5.1-4,9.3-7,12.8
		c4.6,1.3,9.9,2.5,16.3,3.7c26.4,4.7,80.8-2.6,107.1-8.4c19.4-4.3,29.5-14.5,33.4-19.3c0,0,0-0.1,0.1-0.1c1.2-1.6,1.8-2.6,1.8-2.6
		l-0.1,0C285.7,248.9,286.3,247.3,286.3,245.6z"/>
</g>
</svg>
