<?xml version="1.0" encoding="utf-8"?>
<!-- Generator: Adobe Illustrator 27.0.1, SVG Export Plug-In . SVG Version: 6.00 Build 0)  -->
<svg version="1.1" id="Ebene_1" xmlns="http://www.w3.org/2000/svg" xmlns:xlink="http://www.w3.org/1999/xlink" x="0px" y="0px"
	 viewBox="0 0 300 300" style="enable-background:new 0 0 300 300;" xml:space="preserve">
<style type="text/css">
	.st0{fill:none;stroke:#333333;stroke-width:6.2303;stroke-miterlimit:10;}
	.st1{fill:none;stroke:#333333;stroke-width:6.2303;stroke-linejoin:round;stroke-miterlimit:10;}
</style>
<g>
	<g>
		<polygon class="st0" points="98.6,205.7 79.7,213.3 79.7,249.6 97.3,249.6 79.7,267.1 104.8,296.4 130.1,296.4 		"/>
		<polygon class="st0" points="97.3,249.6 79.7,249.6 79.7,213.3 3.6,243.7 3.6,296.4 104.8,296.4 79.7,267.1 		"/>
	</g>
	<g>
		<polygon class="st0" points="201.4,205.7 220.3,213.3 220.3,249.6 202.7,249.6 220.3,267.1 195.2,296.4 169.9,296.4 		"/>
		<polygon class="st0" points="202.7,249.6 220.3,249.6 220.3,213.3 296.4,243.7 296.4,296.4 195.2,296.4 220.3,267.1 		"/>
	</g>
	<polygon class="st1" points="150,214.4 167.6,237.8 150,255.4 132.4,237.8 	"/>
	<polygon class="st0" points="155.9,255.4 173.4,296.4 126.6,296.4 144.1,255.4 	"/>
	<path class="st0" d="M150,185.1c-12.4,0.1-25.5-7-35.1-14.6V191l35.1,23.4l35.1-23.4v-20.4C175.3,178.3,162.1,185.2,150,185.1z"/>
	<path class="st0" d="M103.1,44.6c11.7-5.9,29.3,5.9,41,5.9c17.6,0,23.4-17.6,35.1-17.6c29.3,0,41,52.7,41,52.7l2.9-2.9
		c-4.3-41-32.5-79.1-73.4-79.1c-38,0-69.3,35.5-73.2,81.1l9,6.8C85.6,91.4,91.1,50.6,103.1,44.6z"/>
	<path class="st0" d="M225.5,84.9c-0.7-0.1-1.4,0.1-2,0.4c-0.1-0.9-0.2-1.8-0.3-2.7l-2.9,2.9c0,0-11.7-52.7-41-52.7
		c-11.7,0-17.6,17.6-35.1,17.6c-11.7,0-29.3-11.7-41-5.9c-12.1,6-17.6,46.9-17.6,46.9l-9-6.8c0,0.2-0.1,0.4-0.1,0.7
		c-0.6-0.3-1.3-0.5-2-0.4c-6.4,0.6-6.6,9.1-6.4,11.4c2.9,29.9,10.6,34.2,15.6,33.6c13.2,30.5,47.1,63,78.3,53.2
		c19.3-5.8,42.3-25.5,54.3-53.2c5,0.6,12.8-3.7,15.6-33.6C232.2,94,231.9,85.5,225.5,84.9z"/>
	<polygon class="st0" points="185.1,191 150,214.4 167.6,237.8 202.7,208.6 	"/>
	<polygon class="st0" points="114.9,191 97.3,208.6 132.4,237.8 150,214.4 	"/>
</g>
</svg>
