<?xml version="1.0" encoding="utf-8"?>
<!-- Generator: Adobe Illustrator 27.0.1, SVG Export Plug-In . SVG Version: 6.00 Build 0)  -->
<svg version="1.1" id="Ebene_1" xmlns="http://www.w3.org/2000/svg" xmlns:xlink="http://www.w3.org/1999/xlink" x="0px" y="0px"
	 viewBox="0 0 300 300" style="enable-background:new 0 0 300 300;" xml:space="preserve">
<style type="text/css">
	.st0{fill:none;stroke:#333333;stroke-width:6.146;stroke-linejoin:round;stroke-miterlimit:10;}
	.st1{fill:none;stroke:#333333;stroke-width:6.146;stroke-miterlimit:10;}
</style>
<g>
	<g>
		<path class="st0" d="M229.2,237.4L150,271.3l-79.2-33.9L5.6,259.8v11.6c0,12.8,10.3,23.1,23.1,23.1h242.6
			c12.8,0,23.1-10.3,23.1-23.1v-11.6L229.2,237.4z"/>
		<polygon class="st0" points="229.2,237.4 188.5,216.3 150,271.3 		"/>
		<polygon class="st0" points="111.5,216.3 70.8,237.4 150,271.3 		"/>
	</g>
	<g>
		<g>
			<path class="st1" d="M74.9,89.6c5.5,1.7,11.3,2.7,17.3,2.7c29.6,0,46.2-23.1,57.8-52c11.6,23.1,28.7,34.7,52,34.7
				c6,0,11.9-0.9,17.3-2.7"/>
			<line class="st1" x1="150" y1="40.2" x2="150" y2="22.9"/>
		</g>
		<path class="st1" d="M88.8,92.2c-1.5,7.4-2.4,15.1-2.4,23.1c0,47.9,28.5,86.7,63.5,86.7s63.5-38.8,63.5-86.7
			c0-8-0.9-15.7-2.4-23.1c-1.2-6.1-2.9-11.9-5-17.3"/>
		<path class="st1" d="M195.3,219.3c38-10.6,64.5-36.4,64.5-80.9C259.8,77.8,210.6,5.6,150,5.6S40.2,77.8,40.2,138.4
			c0,44.5,26.5,70.3,64.5,80.9"/>
		<line class="st0" x1="184.7" y1="190.4" x2="184.7" y2="219.3"/>
		<line class="st0" x1="115.3" y1="190.4" x2="115.3" y2="219.3"/>
	</g>
</g>
</svg>
